<svg xmlns="http://www.w3.org/2000/svg" width="367.94" height="370.681" viewBox="0 0 367.94 370.681"><g id="undraw_winners_re_wr1l" transform="translate(-0.007 0)"><path id="Path_15274" fill="#f2f2f2" d="M394.844,701.807a1.982,1.982,0,0,1-1.437-3.435l.136-.54a5.325,5.325,0,0,0-9.873-.093c-2.349,5.5-5.39,11.191-3.878,17.248-9.988-21.167-6.591-47.5,8.169-65.6a16.247,16.247,0,0,0,8.248-10.877c-2.019.684-4.537-.958-3.019-3.085.658-.813,1.322-1.619,1.98-2.432-7.67-8.169-16.809,4.67-8.366,15.695a63.552,63.552,0,0,0-7.138,11.165,26.721,26.721,0,0,0-1.6-12.411c-1.527-3.684-4.389-6.786-6.909-9.971a5.485,5.485,0,0,0-9.784,2.834c2.828.93,3.2,5.015-.039,5.574a27.356,27.356,0,0,0,15.074,21.6,63.8,63.8,0,0,0-3.487,26.667c-1.455-10.56-12.791-13.123-20.714-17.32a3.086,3.086,0,0,0-4.707,3.126,17.821,17.821,0,0,1,3.125,1.648,2.694,2.694,0,0,1-1.252,4.918C353.373,696.4,363.7,703.035,374.3,703a65.588,65.588,0,0,0,4.406,12.863h15.74c.056-.175.107-.355.158-.53a17.889,17.889,0,0,1-4.355-.26c3.855-4.564,6.836-6.892,4.592-13.263Z" data-name="Path 15274" transform="translate(-302.025 -346.099)"/><path id="Path_15275" fill="#f2f2f2" d="M688.5,701.807a1.982,1.982,0,0,0,1.437-3.435l-.136-.54a5.325,5.325,0,0,1,9.873-.093c2.349,5.5,5.39,11.191,3.878,17.248,9.988-21.167,6.591-47.5-8.169-65.6a16.247,16.247,0,0,1-8.248-10.877c2.019.684,4.537-.958,3.019-3.085-.658-.813-1.323-1.619-1.981-2.432,7.67-8.169,16.809,4.67,8.366,15.695a63.548,63.548,0,0,1,7.138,11.165,26.721,26.721,0,0,1,1.6-12.411c1.527-3.684,4.389-6.786,6.909-9.971a5.485,5.485,0,0,1,9.784,2.834c-2.828.93-3.2,5.015.039,5.574a27.356,27.356,0,0,1-15.074,21.6,63.8,63.8,0,0,1,3.486,26.667c1.455-10.56,12.791-13.123,20.714-17.32a3.086,3.086,0,0,1,4.707,3.126,17.817,17.817,0,0,0-3.125,1.648,2.694,2.694,0,0,0,1.252,4.918c-3.994,9.885-14.32,16.522-24.924,16.484a65.6,65.6,0,0,1-4.406,12.863H688.9c-.056-.175-.107-.355-.158-.53a17.889,17.889,0,0,0,4.355-.26c-3.855-4.564-6.836-6.892-4.592-13.263Z" data-name="Path 15275" transform="translate(-455.36 -346.099)"/><path id="Path_15276" fill="#ffb6b6" d="M422.494,631.156l-6.778,1.542-9.175-25.412,10-2.276Z" data-name="Path 15276" transform="translate(-183.515 -273.11)"/><path id="Path_15277" fill="#2f2e41" d="M686.259,770.01l-20.845,4.743-.06-.264a8.321,8.321,0,0,1,6.267-9.959h0l3.15-3.755,7.761,1.272,1.82-.414Z" data-name="Path 15277" transform="translate(-445.433 -404.948)"/><path id="Path_15278" fill="#ffb6b6" d="M616.321,426.88l3.726,5.868-20.862,17.167-5.5-8.662Z" data-name="Path 15278" transform="translate(-267.995 -192.7)"/><path id="Path_15279" fill="#2f2e41" d="M904.542,531.565,916,549.611l-.228.145a8.321,8.321,0,0,1-11.485-2.563h0l-4.594-1.708-1.4-7.739-1-1.575Z" data-name="Path 15279" transform="translate(-550.226 -301.48)"/><path id="Path_15280" fill="#a0616a" d="M504.341,394.523l-1.674-9.7,25.453-11.493,5.5-9.732a4.732,4.732,0,1,1,6.989,3.141l-9.042,13.98Z" data-name="Path 15280" transform="translate(-372.088 -223.084)"/><path id="Path_15281" fill="#3d92ed" d="M226.971,293.234l11.462-5.855,3.034,11.393-7.962,5.9Z" data-name="Path 15281" transform="translate(-102.455 -129.727)"/><path id="Path_15282" fill="#a0616a" d="M180.085,629.065h6.93l3.3-26.732H180.083Z" data-name="Path 15282" transform="translate(-81.289 -271.901)"/><path id="Path_15283" fill="#2f2e41" d="M451.415,760.482v-4.7l-1.822.111-7.417.439-1.717.105-1.312,15.736-.07.844H444l.158-.838.715-3.808,1.845,3.808.4.838h13.047a2.948,2.948,0,0,0,2.929-2.935C463.647,767.512,452.8,761.953,451.415,760.482Z" data-name="Path 15283" transform="translate(-343.382 -402.695)"/><path id="Path_15284" fill="#a0616a" d="M28.794,457.676l-1.616,6.74L52.4,473.855l2.384-9.947Z" data-name="Path 15284" transform="translate(-12.265 -206.602)"/><path id="Path_15285" fill="#2f2e41" d="M278.96,573.656l4.569,1.1.317-1.8,1.3-7.315.3-1.694-15-4.945-.8-.265-1.147,4.785.778.349,3.536,1.583-4.133.907-.909.2-3.042,12.687a2.948,2.948,0,0,0,2.171,3.533C269.272,583.912,277.208,574.658,278.96,573.656Z" data-name="Path 15285" transform="translate(-264.644 -313.745)"/><path id="Path_15286" fill="#a0616a" d="M427.706,444.408l-8.921-4.17L401,461.767l-10.836,2.74a4.732,4.732,0,1,0,1.19,7.569l15.867-5.042Z" data-name="Path 15286" transform="translate(-318.194 -260.253)"/><path id="Path_15287" fill="#e6e6e6" d="M686.935,286.83a9.561,9.561,0,1,1,9.561-9.561A9.561,9.561,0,0,1,686.935,286.83Zm0-18.024a8.463,8.463,0,1,0,8.464,8.463,8.463,8.463,0,0,0-8.464-8.463Z" data-name="Path 15287" transform="translate(-450.953 -182.371)"/><path id="Path_15288" fill="#e6e6e6" d="M691.362,285.6l-.058,0a1.179,1.179,0,0,1-.874-.454l-1.506-1.936a1.179,1.179,0,0,1,.207-1.655l.054-.042a1.179,1.179,0,0,1,1.655.207.86.86,0,0,0,1.3.063l3.058-3.228a1.181,1.181,0,0,1,1.667-.045l.05.048a1.179,1.179,0,0,1,.045,1.667l-4.745,5.009A1.178,1.178,0,0,1,691.362,285.6Z" data-name="Path 15288" transform="translate(-456.055 -187.101)"/><path id="Path_15289" fill="#e6e6e6" d="M599.935,497.83a9.561,9.561,0,1,1,9.561-9.561A9.561,9.561,0,0,1,599.935,497.83Zm0-18.024a8.463,8.463,0,1,0,8.464,8.463,8.463,8.463,0,0,0-8.464-8.463Z" data-name="Path 15289" transform="translate(-411.68 -277.619)"/><path id="Path_15290" fill="#e6e6e6" d="M604.362,496.6l-.058,0a1.179,1.179,0,0,1-.874-.454l-1.506-1.936a1.179,1.179,0,0,1,.207-1.655l.054-.042a1.179,1.179,0,0,1,1.655.207.86.86,0,0,0,1.3.063l3.058-3.228a1.181,1.181,0,0,1,1.667-.045l.05.048a1.179,1.179,0,0,1,.045,1.667l-4.745,5.009A1.178,1.178,0,0,1,604.362,496.6Z" data-name="Path 15290" transform="translate(-416.782 -282.349)"/><path id="Path_15291" fill="#e6e6e6" d="M408.935,262.83a9.561,9.561,0,1,1,9.561-9.561A9.561,9.561,0,0,1,408.935,262.83Zm0-18.024a8.463,8.463,0,1,0,8.464,8.463,8.463,8.463,0,0,0-8.464-8.463Z" data-name="Path 15291" transform="translate(-325.46 -171.537)"/><path id="Path_15292" fill="#e6e6e6" d="M413.362,261.6l-.058,0a1.178,1.178,0,0,1-.874-.454l-1.506-1.936a1.179,1.179,0,0,1,.207-1.655l.054-.042a1.179,1.179,0,0,1,1.655.207.86.86,0,0,0,1.3.063l3.058-3.228a1.181,1.181,0,0,1,1.667-.045l.05.048a1.179,1.179,0,0,1,.045,1.667l-4.745,5.009a1.178,1.178,0,0,1-.856.368Z" data-name="Path 15292" transform="translate(-330.562 -176.267)"/><path id="Path_15293" fill="#f2f2f2" d="M434,528.941c-22.17,0-47.649-24.6-70.191-12.913-68.252,35.391-58.857-23.831-78.465-45.856l.644-1.291c21.636,19.4,48.648,35.184,78.118,45.645,26.631,9.455,53.462,13.835,77.583,12.679l.042,1.552Q437.914,528.941,434,528.941Z" data-name="Path 15293" transform="translate(-273.987 -273.183)"/><ellipse id="Ellipse_61" cx="4.634" cy="6.214" fill="#e6e6e6" data-name="Ellipse 61" rx="4.634" ry="6.214" transform="translate(124.972 76.993)"/><path id="Path_15294" fill="#e6e6e6" d="M595.973,448.87c-2.119,1.412-4.287-1.948-2.128-3.3C595.964,444.161,598.132,447.521,595.973,448.87Z" data-name="Path 15294" transform="translate(-412.843 -262.508)"/><circle id="Ellipse_62" cx="6.034" cy="6.034" r="6.034" fill="#ff6584" data-name="Ellipse 62" transform="translate(164.9 61.184)"/><path id="Path_15295" fill="#f0f0f0" d="M611.6,212.435l34.338-100.286-37.7,99.086a1.888,1.888,0,1,0,3.367,1.2Z" data-name="Path 15295" opacity=".3" transform="translate(-419.556 -112.149)"/><circle id="Ellipse_63" cx="5.871" cy="5.871" r="5.871" fill="#f2f2f2" data-name="Ellipse 63" transform="translate(151.51 210.722)"/><path id="Path_15296" fill="#2f2e41" d="M396.294,511.053s-14.637,9.531-10.766,15.864c.133.219-17.483,23.486-17.483,23.486l-33.256-2.111-1.172,11.131L363.223,568s7.243,5.321,12.839-.542,24.233-23.817,24.233-23.817l.9,36.249-9.356,50.23,13.97-.886,13.6-50.393,5.019-57.082Z" data-name="Path 15296" transform="translate(-295.776 -292.22)"/><path id="Path_15297" fill="#3d92ed" d="M449.061,404.788l-6.155,4.664-7.015,14.973,6.746,9.162s5.674,9.834-3.408,19.358-16.058,19.7-8.788,19.333,36.714,14.613,36.908,2.343.586-21.676.586-21.676l7.72-19.58s4.6-11.68,1.37-15.177-7.552-7.964-7.552-7.964l-7.862-7.862h-7.1Z" data-name="Path 15297" transform="translate(-338.117 -243.156)"/><path id="Path_15298" fill="#a0616a" d="M473.122,353.057c13.808,7.857,2.472,28.589-11.593,21.207C447.722,366.406,459.057,345.674,473.122,353.057Z" data-name="Path 15298" transform="translate(-350.689 -220.193)"/><path id="Path_15299" fill="#2f2e41" d="M475.878,352.59c-.968,1.258-2.989.668-6.947,1.566a16.5,16.5,0,0,0-.462-3.984,11.214,11.214,0,0,1-1.891,4.483c-3.437.381.776,10.823-.984,18.5-2.268-16.2-7.037-11.954-4.628-8.741,1.542,2.057.514,8.227-4.113,5.142-7.635,3.629-18.51-14.4-6.457-22.85-.215-4.569,4.869-5.291,8-3.886C465.995,337.161,474.675,344.414,475.878,352.59Z" data-name="Path 15299" transform="translate(-346.061 -215.37)"/><path id="Path_15300" fill="#2f2e41" d="M412.9,339.341c-3.074,18.9-19.552-3.476-27.3,15.125-2.436,6.736,1.744,11.555,4.387,17.146.6,4.595-5.374,6.926-6,11.156-.174,9.7,15.47,9.1,19.844,2.986,4.494-6.4-.872-15,1.829-21.871,3.8-9.544,19.235-9.615,20.58-20.718C423.638,339.455,416.634,335.206,412.9,339.341Z" data-name="Path 15300" transform="translate(-318.515 -213.94)"/><path id="Path_15301" fill="#2f2e41" d="M456.424,339.212c-.1.042-.2.085-.291.132h-.005c-.085.042-.169.085-.254.132-.011.005-.016.011-.026.016-.111-.106-.222-.212-.339-.318a1.223,1.223,0,0,0,.021.519l.016.064c.106.111.217.217.333.328.106-.079.206-.164.312-.243.064-.053.127-.106.2-.159.011-.138.026-.3.042-.471Zm3.187-5.886c-2.361-.54-3.123,2.546-3.351,4.033-.858-5.4-4.425-3.7-3.192-.016a8.248,8.248,0,0,0,1.816,2.922c.111.127.233.254.36.381-.143.741.577.55,1.551-.132a12.974,12.974,0,0,0,1.985-1.742c1.943-2.037,3.456-4.764.831-5.446Zm.074,3.038a18.5,18.5,0,0,1-2.44,2.588q-.421.381-.857.73c-.005.048-.005.09-.011.127a.971.971,0,0,1-.074.148c-.3.535-.63.243-.757-.2-.011-.016-.026-.032-.037-.048a7.456,7.456,0,0,1-1.1-1.45c-2.186-3.79,1.334-6.368,1.159.709a.671.671,0,0,0-.064.206,1.223,1.223,0,0,0,.021.519l.016.064c.106.111.217.217.333.328.106-.079.206-.164.312-.243.064-.053.127-.106.2-.159.011-.138.026-.3.042-.471v-.005c.138-1.419.513-3.97,1.207-4.663,1.524-1.169,3.5.1,2.048,1.821Zm-3.261,2.848c-.1.042-.2.085-.291.132h-.005c-.085.042-.169.085-.254.132-.011.005-.016.011-.026.016-.111-.106-.222-.212-.339-.318a1.223,1.223,0,0,0,.021.519l.016.064c.106.111.217.217.333.328.106-.079.206-.164.312-.243.064-.053.127-.106.2-.159.011-.138.026-.3.042-.471Z" data-name="Path 15301" transform="translate(-349.582 -211.963)"/><path id="Path_15302" fill="#2f2e41" d="M668.158,526.825l-5.1,13.3-23.923,47.189,21.021,54.9,10.849-2.864-8.942-52.032,25.654-31.171,30.466,20.663s13.512,10.548,18.652.549,38.4-31.269,38.4-31.269l-8.229-8.777-38.3,17.925L702.27,518.023Z" data-name="Path 15302" transform="translate(-433.691 -295.367)"/><path id="Path_15303" fill="#3d92ed" d="M705.67,410.661l-8.395-9.019-14.4-1.981L665.23,412.013l.178,13.673L674.13,457.9s-3.323,23.147,5.958,22.915,14.338-4.859,18.118-3.917,19.847,4.95,20.865.752,6.431-1.192,6.193-5.164-14.652-32.6-14.652-32.6l3.584-28.632Z" data-name="Path 15303" transform="translate(-445.471 -241.936)"/><path id="Path_15304" fill="#ffb6b6" d="M811.154,340.176a5.142,5.142,0,0,1-5.509,5.641l-19.3,36.715-5.183-7.956,19.732-34.651a5.17,5.17,0,0,1,10.265.252Z" data-name="Path 15304" transform="translate(-497.802 -212.968)"/><path id="Path_15305" fill="#3d92ed" d="M725.035,400.468s-.766,6.531,6.586,8.148,27.721-10.022,31.061-11.8c1.046-.557,2.464-3.285,3.92-6.771.654-1.565,1.315-3.282,1.953-5.024.369-1.008,2.137-1.283,2.485-2.283s-.728-2.713-.415-3.65c1.487-4.448,2.541-7.976,2.541-7.976l-4.873-9.154c-6.815,3.6-10.311,11.539-12.881,20.682Z" data-name="Path 15305" transform="translate(-472.458 -224.916)"/><path id="Path_15306" fill="#ffb6b6" d="M568.479,354.471a5.142,5.142,0,0,0,6.745,4.083L603.1,389.269l3.027-9-27.776-28.61a5.17,5.17,0,0,0-9.875,2.812Z" data-name="Path 15306" transform="translate(-401.767 -218.832)"/><path id="Path_15307" fill="#3d92ed" d="M653.454,395.225s2.376,6.131-4.338,9.537S619.769,402,616.091,401.11c-1.152-.277-3.208-2.564-5.49-5.574-1.024-1.352-2.094-2.849-3.148-4.376-.61-.884-2.39-.708-2.978-1.588s.026-2.809-.512-3.638c-2.553-3.934-4.457-7.087-4.457-7.087l2.427-10.082c7.5,1.783,12.87,8.592,17.647,16.8Z" data-name="Path 15307" transform="translate(-415.802 -227.99)"/><circle id="Ellipse_64" cx="13.702" cy="13.702" r="13.702" fill="#ffb6b6" data-name="Ellipse 64" transform="translate(231.19 128.027)"/><path id="Path_15308" fill="#2f2e41" d="M714.644,346.979a7.065,7.065,0,0,0-6.768-3.3,9.242,9.242,0,0,0-15.486-5.391,2.874,2.874,0,0,0-2.81-.281,5.926,5.926,0,0,0-2.283,1.833,13.3,13.3,0,0,0-1.861,13.53c-.32-1.165.847-2.261,2.027-2.522s2.417-.014,3.613-.184c1.533-.218,2.911-1.107,4.447-1.308a10.124,10.124,0,0,1,3.847.494,10.429,10.429,0,0,0,3.845.516c1.292-.153,2.957,4.744,2.935,8.194,0,.654.13,1.493.769,1.632.787.171,1.242-.915,1.991-1.211a1.385,1.385,0,0,1,1.7.9,2.258,2.258,0,0,1-.431,2.023,6.674,6.674,0,0,1-1.618,1.4l.308.256a1.835,1.835,0,0,0,2.317.288,5,5,0,0,0,1.663-1.894,22.284,22.284,0,0,0,3.051-7.31A10.647,10.647,0,0,0,714.644,346.979Z" data-name="Path 15308" transform="translate(-454.112 -213.096)"/><path id="Path_15309" fill="#f2f2f2" d="M797.4,449.75c-17.673,13.385-52.838,9.157-63.75,32.085-33.04,69.421-61.307,16.539-90.236,10.82l-.266-1.418c28.96,2.4,60.023-1.325,89.831-10.778,26.938-8.542,50.972-21.25,69.5-36.734l.97,1.212Q800.513,447.39,797.4,449.75Z" data-name="Path 15309" transform="translate(-435.501 -261.827)"/><path id="Path_15310" fill="#ccc" d="M589.647,785.377c-.421,1.247-240.742,1.247-241.2,0C348.871,784.13,589.192,784.13,589.647,785.377Z" data-name="Path 15310" transform="translate(-302.472 -415.632)"/></g></svg>