<svg xmlns="http://www.w3.org/2000/svg" width="22" height="22" fill="none" viewBox="0 0 22 22"><path fill="#969BA0" d="M10.9033 6.52844C10.038 6.52844 9.19216 6.78503 8.4727 7.26576C7.75324 7.74649 7.19248 8.42977 6.86135 9.2292C6.53022 10.0286 6.44358 10.9083 6.61239 11.757C6.7812 12.6056 7.19787 13.3852 7.80973 13.997C8.42158 14.6089 9.20113 15.0256 10.0498 15.1944C10.8985 15.3632 11.7781 15.2765 12.5776 14.9454C13.377 14.6143 14.0603 14.0535 14.541 13.334C15.0217 12.6146 15.2783 11.7687 15.2783 10.9034C15.2769 9.74353 14.8156 8.63153 13.9954 7.81136C13.1752 6.99118 12.0632 6.52981 10.9033 6.52844ZM10.9033 13.5284C10.3841 13.5284 9.87662 13.3745 9.44494 13.086C9.01327 12.7976 8.67681 12.3876 8.47813 11.908C8.27945 11.4283 8.22747 10.9005 8.32876 10.3913C8.43004 9.88212 8.68005 9.41439 9.04716 9.04728C9.41427 8.68017 9.882 8.43016 10.3912 8.32888C10.9004 8.22759 11.4282 8.27958 11.9079 8.47825C12.3875 8.67693 12.7975 9.01339 13.0859 9.44507C13.3744 9.87674 13.5283 10.3843 13.5283 10.9034C13.5275 11.5994 13.2507 12.2666 12.7586 12.7587C12.2665 13.2509 11.5993 13.5277 10.9033 13.5284Z"/><path fill="#969BA0" d="M2.39263 5.46327C1.96237 5.30162 1.48611 5.31368 1.06458 5.4969C0.643061 5.68012 0.309341 6.02013 0.134019 6.445C-0.0413024 6.86986 -0.0444749 7.34627 0.125173 7.77344C0.294821 8.2006 0.623984 8.54502 1.04303 8.73384C1.46933 8.91415 1.83306 9.21607 2.08878 9.60189C2.3445 9.98771 2.48088 10.4403 2.48088 10.9032C2.48088 11.3661 2.3445 11.8187 2.08878 12.2045C1.83306 12.5903 1.46933 12.8922 1.04303 13.0725C0.623883 13.2613 0.294641 13.6058 0.12497 14.0331C-0.0447014 14.4603 -0.0414897 14.9368 0.133925 15.3618C0.30934 15.7867 0.643196 16.1267 1.06485 16.3099C1.4865 16.493 1.96287 16.5049 2.39315 16.3431C2.82253 16.1682 3.29396 16.124 3.74838 16.2158C4.20281 16.3077 4.62003 16.5316 4.94778 16.8595C5.27552 17.1874 5.49923 17.6047 5.59086 18.0592C5.6825 18.5137 5.63799 18.9851 5.46292 19.4144C5.29603 19.8458 5.30639 20.3256 5.49174 20.7495C5.67708 21.1733 6.0224 21.5067 6.45246 21.677C6.66782 21.7661 6.89863 21.812 7.13172 21.812C7.47223 21.8144 7.80587 21.7162 8.09082 21.5298C8.37576 21.3433 8.59933 21.0769 8.73349 20.764C8.9138 20.3376 9.21572 19.9739 9.60154 19.7182C9.98736 19.4625 10.44 19.3261 10.9028 19.3261C11.3657 19.3261 11.8183 19.4625 12.2041 19.7182C12.5899 19.9739 12.8919 20.3376 13.0722 20.764C13.261 21.1831 13.6055 21.5123 14.0327 21.682C14.46 21.8517 14.9365 21.8485 15.3614 21.6731C15.7864 21.4976 16.1264 21.1638 16.3095 20.7421C16.4927 20.3205 16.5046 19.8441 16.3428 19.4138C16.1679 18.9845 16.1236 18.513 16.2155 18.0586C16.3073 17.6042 16.5312 17.187 16.8591 16.8592C17.187 16.5315 17.6044 16.3078 18.0588 16.2161C18.5133 16.1245 18.9847 16.169 19.414 16.3441C19.8427 16.5105 20.3197 16.5016 20.7419 16.3192C21.1641 16.1369 21.4976 15.7957 21.6703 15.3695L20.8679 15.0209L20.0717 14.7227C19.3238 14.4172 18.5023 14.3396 17.7105 14.4997C16.9187 14.6598 16.1919 15.0504 15.6215 15.6225C15.0515 16.197 14.6599 16.9242 14.4939 17.7163C14.3279 18.5084 14.3945 19.3316 14.6858 20.0867C14.3737 19.3415 13.8479 18.7053 13.1748 18.2585C12.5017 17.8116 11.7113 17.5741 10.9034 17.5757C10.0937 17.5782 9.30208 17.8153 8.62435 18.2584C7.94661 18.7014 7.4118 19.3314 7.08464 20.0721C7.38996 19.3242 7.46745 18.5028 7.30736 17.711C7.14727 16.9192 6.75676 16.1924 6.18488 15.6219C5.61026 15.052 4.8831 14.6605 4.09101 14.4945C3.29893 14.3284 2.47573 14.395 1.72063 14.6862C2.46582 14.374 3.10189 13.8481 3.54866 13.1749C3.99542 12.5017 4.23288 11.7114 4.23109 10.9034C4.22858 10.0937 3.99146 9.30208 3.54841 8.62434C3.10536 7.94661 2.47539 7.4118 1.73472 7.08464C2.48256 7.39015 3.30403 7.46773 4.09584 7.30764C4.88766 7.14754 5.61447 6.75692 6.18488 6.18488C6.75485 5.61031 7.14646 4.88314 7.31248 4.09104C7.47851 3.29893 7.41187 2.47572 7.1206 1.72063C7.43282 2.46582 7.95867 3.10189 8.63187 3.54866C9.30506 3.99542 10.0955 4.23288 10.9034 4.23109C11.7131 4.22858 12.5047 3.99146 13.1825 3.54841C13.8602 3.10536 14.395 2.47539 14.7222 1.73472C14.4168 2.48259 14.3394 3.30401 14.4994 4.09579C14.6595 4.88756 15.05 5.61436 15.6219 6.18488C16.1967 6.75456 16.9238 7.14596 17.7159 7.31198C18.5079 7.47799 19.331 7.41153 20.0862 7.1206C19.3446 7.43216 18.7111 7.9551 18.2647 8.62423C17.8183 9.29337 17.5787 10.0791 17.5757 10.8835C17.5728 11.6879 17.8067 12.4753 18.2483 13.1476C18.6899 13.82 19.3196 14.3475 20.0589 14.6644C20.0613 14.6716 20.0613 14.6794 20.0589 14.6866L20.8676 15.0204L21.6717 15.3651L21.6764 15.354C21.855 14.9303 21.8594 14.4532 21.6886 14.0262C21.5177 13.5993 21.1854 13.2569 20.7638 13.0734C20.3375 12.8931 19.9737 12.5912 19.718 12.2054C19.4623 11.8195 19.3259 11.3669 19.3259 10.9041C19.3259 10.4412 19.4623 9.98858 19.718 9.60276C19.9737 9.21695 20.3375 8.91503 20.7638 8.73472C21.1829 8.5459 21.5122 8.20142 21.6818 7.77416C21.8515 7.34691 21.8483 6.8704 21.6729 6.44547C21.4975 6.02054 21.1636 5.68053 20.742 5.49738C20.3203 5.31422 19.8439 5.30231 19.4137 5.46414C18.9843 5.63901 18.5128 5.68329 18.0584 5.59143C17.604 5.49957 17.1868 5.27567 16.859 4.94776C16.5313 4.61986 16.3076 4.20253 16.2159 3.74806C16.1243 3.29359 16.1688 2.82218 16.3439 2.39289C16.5057 1.96263 16.4937 1.4863 16.3105 1.0647C16.1274 0.643099 15.7873 0.309297 15.3624 0.133922C14.9375 -0.0414523 14.4611 -0.0446419 14.0339 0.125029C13.6066 0.294699 13.2622 0.623918 13.0734 1.04303C12.8931 1.46933 12.5912 1.83306 12.2054 2.08878C11.8195 2.3445 11.3669 2.48088 10.9041 2.48088C10.4412 2.48088 9.98858 2.3445 9.60277 2.08878C9.21695 1.83306 8.91503 1.46933 8.73472 1.04303C8.5459 0.623883 8.20142 0.294641 7.77416 0.12497C7.34691 -0.0447014 6.8704 -0.0414897 6.44547 0.133925C6.02054 0.30934 5.68053 0.643196 5.49738 1.06485C5.31423 1.4865 5.30231 1.96287 5.46414 2.39315C5.63901 2.82253 5.68329 3.29396 5.59143 3.74838C5.49958 4.20281 5.27567 4.62003 4.94776 4.94778C4.61986 5.27552 4.20253 5.49923 3.74806 5.59086C3.29359 5.6825 2.82218 5.63799 2.39289 5.46292L2.39263 5.46327Z"/></svg>