<svg xmlns="http://www.w3.org/2000/svg" width="24" height="24" fill="none" viewBox="0 0 24 24"><path fill="#3D92ED" d="M12.9023 8.52844C12.037 8.52844 11.1912 8.78503 10.4717 9.26576C9.75226 9.74649 9.1915 10.4298 8.86037 11.2292C8.52924 12.0286 8.4426 12.9083 8.61141 13.757C8.78022 14.6056 9.1969 15.3852 9.80875 15.997C10.4206 16.6089 11.2002 17.0256 12.0488 17.1944C12.8975 17.3632 13.7771 17.2765 14.5766 16.9454C15.376 16.6143 16.0593 16.0535 16.54 15.334C17.0207 14.6146 17.2773 13.7687 17.2773 12.9034C17.276 11.7435 16.8146 10.6315 15.9944 9.81136C15.1742 8.99118 14.0622 8.52981 12.9023 8.52844ZM12.9023 15.5284C12.3832 15.5284 11.8756 15.3745 11.444 15.086C11.0123 14.7976 10.6758 14.3876 10.4772 13.908C10.2785 13.4283 10.2265 12.9005 10.3278 12.3913C10.4291 11.8821 10.6791 11.4144 11.0462 11.0473C11.4133 10.6802 11.881 10.4302 12.3902 10.3289C12.8994 10.2276 13.4272 10.2796 13.9069 10.4783C14.3865 10.6769 14.7965 11.0134 15.0849 11.4451C15.3734 11.8767 15.5273 12.3843 15.5273 12.9034C15.5266 13.5994 15.2498 14.2666 14.7576 14.7587C14.2655 15.2509 13.5983 15.5277 12.9023 15.5284Z"/><path fill="#3D92ED" d="M4.39263 7.46327C3.96237 7.30162 3.48611 7.31368 3.06458 7.4969C2.64306 7.68012 2.30934 8.02013 2.13402 8.445C1.9587 8.86986 1.95553 9.34627 2.12517 9.77344C2.29482 10.2006 2.62398 10.545 3.04303 10.7338C3.46933 10.9142 3.83306 11.2161 4.08878 11.6019C4.3445 11.9877 4.48088 12.4403 4.48088 12.9032C4.48088 13.3661 4.3445 13.8187 4.08878 14.2045C3.83306 14.5903 3.46933 14.8922 3.04303 15.0725C2.62388 15.2613 2.29464 15.6058 2.12497 16.0331C1.9553 16.4603 1.95851 16.9368 2.13393 17.3618C2.30934 17.7867 2.6432 18.1267 3.06485 18.3099C3.4865 18.493 3.96287 18.5049 4.39315 18.3431C4.82253 18.1682 5.29396 18.124 5.74838 18.2158C6.20281 18.3077 6.62003 18.5316 6.94778 18.8595C7.27552 19.1874 7.49923 19.6047 7.59086 20.0592C7.6825 20.5137 7.63799 20.9851 7.46292 21.4144C7.29603 21.8458 7.30639 22.3256 7.49174 22.7495C7.67708 23.1733 8.0224 23.5067 8.45246 23.677C8.66782 23.7661 8.89863 23.812 9.13172 23.812C9.47223 23.8144 9.80587 23.7162 10.0908 23.5298C10.3758 23.3433 10.5993 23.0769 10.7335 22.764C10.9138 22.3376 11.2157 21.9739 11.6015 21.7182C11.9874 21.4625 12.44 21.3261 12.9028 21.3261C13.3657 21.3261 13.8183 21.4625 14.2041 21.7182C14.5899 21.9739 14.8919 22.3376 15.0722 22.764C15.261 23.1831 15.6055 23.5123 16.0327 23.682C16.46 23.8517 16.9365 23.8485 17.3614 23.6731C17.7864 23.4976 18.1264 23.1638 18.3095 22.7421C18.4927 22.3205 18.5046 21.8441 18.3428 21.4138C18.1679 20.9845 18.1236 20.513 18.2155 20.0586C18.3073 19.6042 18.5312 19.187 18.8591 18.8592C19.187 18.5315 19.6044 18.3078 20.0588 18.2161C20.5133 18.1245 20.9847 18.169 21.414 18.3441C21.8427 18.5105 22.3197 18.5016 22.7419 18.3192C23.1641 18.1369 23.4976 17.7957 23.6703 17.3695L22.8679 17.0209L22.0717 16.7227C21.3238 16.4172 20.5023 16.3396 19.7105 16.4997C18.9187 16.6598 18.1919 17.0504 17.6215 17.6225C17.0515 18.197 16.6599 18.9242 16.4939 19.7163C16.3279 20.5084 16.3945 21.3316 16.6858 22.0867C16.3737 21.3415 15.8479 20.7053 15.1748 20.2585C14.5017 19.8116 13.7113 19.5741 12.9034 19.5757C12.0937 19.5782 11.3021 19.8153 10.6243 20.2584C9.94661 20.7014 9.4118 21.3314 9.08464 22.0721C9.38996 21.3242 9.46745 20.5028 9.30736 19.711C9.14727 18.9192 8.75676 18.1924 8.18488 17.6219C7.61026 17.052 6.8831 16.6605 6.09101 16.4945C5.29893 16.3284 4.47573 16.395 3.72063 16.6862C4.46582 16.374 5.10189 15.8481 5.54866 15.1749C5.99542 14.5017 6.23288 13.7114 6.23109 12.9034C6.22858 12.0937 5.99146 11.3021 5.54841 10.6243C5.10536 9.94661 4.47539 9.4118 3.73472 9.08464C4.48256 9.39015 5.30403 9.46773 6.09584 9.30764C6.88766 9.14754 7.61447 8.75692 8.18488 8.18488C8.75485 7.61031 9.14646 6.88314 9.31248 6.09104C9.47851 5.29893 9.41187 4.47572 9.1206 3.72063C9.43282 4.46582 9.95867 5.10189 10.6319 5.54866C11.3051 5.99542 12.0955 6.23288 12.9034 6.23109C13.7131 6.22858 14.5047 5.99146 15.1825 5.54841C15.8602 5.10536 16.395 4.47539 16.7222 3.73472C16.4168 4.48259 16.3394 5.30401 16.4994 6.09579C16.6595 6.88756 17.05 7.61436 17.6219 8.18488C18.1967 8.75456 18.9238 9.14596 19.7159 9.31198C20.5079 9.47799 21.331 9.41153 22.0862 9.1206C21.3446 9.43216 20.7111 9.9551 20.2647 10.6242C19.8183 11.2934 19.5787 12.0791 19.5757 12.8835C19.5728 13.6879 19.8067 14.4753 20.2483 15.1476C20.6899 15.82 21.3196 16.3475 22.0589 16.6644C22.0613 16.6716 22.0613 16.6794 22.0589 16.6866L22.8676 17.0204L23.6717 17.3651L23.6764 17.354C23.855 16.9303 23.8594 16.4532 23.6886 16.0262C23.5177 15.5993 23.1854 15.2569 22.7638 15.0734C22.3375 14.8931 21.9737 14.5912 21.718 14.2054C21.4623 13.8195 21.3259 13.3669 21.3259 12.9041C21.3259 12.4412 21.4623 11.9886 21.718 11.6028C21.9737 11.2169 22.3375 10.915 22.7638 10.7347C23.1829 10.5459 23.5122 10.2014 23.6818 9.77416C23.8515 9.34691 23.8483 8.8704 23.6729 8.44547C23.4975 8.02054 23.1636 7.68053 22.742 7.49738C22.3203 7.31422 21.8439 7.30231 21.4137 7.46414C20.9843 7.63901 20.5128 7.68329 20.0584 7.59143C19.604 7.49957 19.1868 7.27567 18.859 6.94776C18.5313 6.61986 18.3076 6.20253 18.2159 5.74806C18.1243 5.29359 18.1688 4.82218 18.3439 4.39289C18.5057 3.96263 18.4937 3.4863 18.3105 3.0647C18.1274 2.6431 17.7873 2.3093 17.3624 2.13392C16.9375 1.95855 16.4611 1.95536 16.0339 2.12503C15.6066 2.2947 15.2622 2.62392 15.0734 3.04303C14.8931 3.46933 14.5912 3.83306 14.2054 4.08878C13.8195 4.3445 13.3669 4.48088 12.9041 4.48088C12.4412 4.48088 11.9886 4.3445 11.6028 4.08878C11.2169 3.83306 10.915 3.46933 10.7347 3.04303C10.5459 2.62388 10.2014 2.29464 9.77416 2.12497C9.34691 1.9553 8.8704 1.95851 8.44547 2.13393C8.02054 2.30934 7.68053 2.6432 7.49738 3.06485C7.31423 3.4865 7.30231 3.96287 7.46414 4.39315C7.63901 4.82253 7.68329 5.29396 7.59143 5.74838C7.49958 6.20281 7.27567 6.62003 6.94776 6.94778C6.61986 7.27552 6.20253 7.49923 5.74806 7.59086C5.29359 7.6825 4.82218 7.63799 4.39289 7.46292L4.39263 7.46327Z"/></svg>