<svg xmlns="http://www.w3.org/2000/svg" width="24" height="24" fill="none" viewBox="0 0 24 24"><path fill="#969BA0" d="M15.375 4.36819L12.375 2.63637C12.261 2.57054 12.1317 2.53589 12 2.53589C11.8683 2.53589 11.739 2.57054 11.625 2.63637L8.625 4.36819C8.51101 4.43401 8.41635 4.52866 8.35052 4.64264C8.2847 4.75662 8.25003 4.88592 8.25 5.01754V8.07252L5.32913 13.9143C5.30706 13.9685 5.29167 14.0253 5.2833 14.0833L2.625 15.6182C2.51101 15.684 2.41635 15.7786 2.35052 15.8926C2.2847 16.0066 2.25003 16.1359 2.25 16.2675V19.7325C2.24998 19.8642 2.28462 19.9936 2.35045 20.1076C2.41628 20.2216 2.51097 20.3163 2.625 20.3822L5.625 22.114C5.73904 22.1798 5.86836 22.2144 6 22.2144C6.13164 22.2144 6.26096 22.1798 6.375 22.114L9.375 20.3822C9.48903 20.3163 9.58372 20.2216 9.64955 20.1076C9.71538 19.9936 9.75002 19.8642 9.75 19.7325V18.75H14.25V19.7325C14.25 19.8642 14.2846 19.9936 14.3504 20.1076C14.4163 20.2216 14.511 20.3163 14.625 20.3822L17.625 22.114C17.739 22.1798 17.8684 22.2144 18 22.2144C18.1316 22.2144 18.261 22.1798 18.375 22.114L21.375 20.3822C21.489 20.3163 21.5837 20.2216 21.6496 20.1076C21.7154 19.9936 21.75 19.8642 21.75 19.7325V16.2675C21.75 16.1359 21.7154 16.0065 21.6496 15.8925C21.5837 15.7784 21.489 15.6837 21.375 15.6179L18.7167 14.0833C18.7083 14.0253 18.6929 13.9685 18.6709 13.9143L15.75 8.07281V5.01754C15.75 4.88592 15.7153 4.75662 15.6495 4.64264C15.5837 4.52866 15.489 4.43401 15.375 4.36819ZM9.75 5.45112L12 4.15212L14.25 5.45112V8.04897L12 9.34796L9.75 8.04897V5.45112ZM8.25 19.299L6 20.598L3.75 19.299V16.7011L6 15.4021L8.25 16.7011V19.299ZM9.75 17.25V16.2675C9.75002 16.1359 9.71538 16.0065 9.64955 15.8925C9.58372 15.7784 9.48903 15.6837 9.375 15.6179L6.87585 14.1755L9.225 9.47801L11.625 10.8637C11.739 10.9295 11.8684 10.9641 12 10.9641C12.1316 10.9641 12.261 10.9295 12.375 10.8637L14.7754 9.47801L17.1241 14.1755L14.625 15.6182C14.511 15.684 14.4163 15.7787 14.3504 15.8928C14.2846 16.0068 14.25 16.1362 14.25 16.2678V17.25H9.75ZM20.25 19.299L18 20.598L15.75 19.299V16.7011L18 15.4021L20.25 16.7011V19.299Z"/></svg>