<svg xmlns="http://www.w3.org/2000/svg" width="24" height="24" fill="none" viewBox="0 0 24 24"><path fill="#3D92ED" d="M15.375 4.36795L12.375 2.63613C12.261 2.5703 12.1317 2.53564 12 2.53564C11.8683 2.53564 11.739 2.5703 11.625 2.63613L8.625 4.36795C8.51101 4.43376 8.41635 4.52841 8.35052 4.64239C8.2847 4.75638 8.25003 4.88567 8.25 5.0173V8.07227L5.32913 13.914C5.30706 13.9683 5.29167 14.0251 5.2833 14.0831L2.625 15.6179C2.51101 15.6838 2.41635 15.7784 2.35052 15.8924C2.2847 16.0064 2.25003 16.1357 2.25 16.2673V19.7323C2.24998 19.864 2.28462 19.9933 2.35045 20.1074C2.41628 20.2214 2.51097 20.3161 2.625 20.3819L5.625 22.1138C5.73904 22.1795 5.86836 22.2141 6 22.2141C6.13164 22.2141 6.26096 22.1795 6.375 22.1138L9.375 20.3819C9.48903 20.3161 9.58372 20.2214 9.64955 20.1074C9.71538 19.9933 9.75002 19.864 9.75 19.7323V18.7498H14.25V19.7323C14.25 19.864 14.2846 19.9933 14.3504 20.1074C14.4163 20.2214 14.511 20.3161 14.625 20.3819L17.625 22.1138C17.739 22.1795 17.8684 22.2141 18 22.2141C18.1316 22.2141 18.261 22.1795 18.375 22.1138L21.375 20.3819C21.489 20.3161 21.5837 20.2214 21.6496 20.1074C21.7154 19.9933 21.75 19.864 21.75 19.7323V16.2673C21.75 16.1356 21.7154 16.0063 21.6496 15.8922C21.5837 15.7782 21.489 15.6835 21.375 15.6176L18.7167 14.0831C18.7083 14.0251 18.6929 13.9683 18.6709 13.914L15.75 8.07257V5.0173C15.75 4.88567 15.7153 4.75638 15.6495 4.64239C15.5837 4.52841 15.489 4.43376 15.375 4.36795ZM9.75 5.45087L12 4.15187L14.25 5.45087V8.04872L12 9.34772L9.75 8.04872V5.45087ZM8.25 19.2987L6 20.5977L3.75 19.2987V16.7009L6 15.4019L8.25 16.7009V19.2987ZM9.75 17.2498V16.2673C9.75002 16.1356 9.71538 16.0063 9.64955 15.8922C9.58372 15.7782 9.48903 15.6835 9.375 15.6176L6.87585 14.1752L9.225 9.47777L11.625 10.8635C11.739 10.9292 11.8684 10.9638 12 10.9638C12.1316 10.9638 12.261 10.9292 12.375 10.8635L14.7754 9.47777L17.1241 14.1752L14.625 15.6179C14.511 15.6838 14.4163 15.7785 14.3504 15.8925C14.2846 16.0066 14.25 16.1359 14.25 16.2676V17.2498H9.75ZM20.25 19.2987L18 20.5977L15.75 19.2987V16.7009L18 15.4019L20.25 16.7009V19.2987Z"/></svg>