<svg xmlns="http://www.w3.org/2000/svg" width="27" height="24" fill="none" viewBox="0 0 27 24"><g id="Icon 2"><ellipse id="Oval" cx="12.973" cy="12" fill="#36B37E" opacity=".15" rx="12.973" ry="12"/><path id="Icon" fill="#36B37E" d="M11.2415 15.8242L7.71537 12.582C7.61683 12.4909 7.56757 12.3737 7.56757 12.2305C7.56757 12.0872 7.61683 11.97 7.71537 11.8789L8.49662 11.1758C8.59515 11.0716 8.71832 11.0195 8.86613 11.0195C9.01393 11.0195 9.14414 11.0716 9.25675 11.1758L11.6216 13.3633L16.6892 8.67578C16.8018 8.57161 16.932 8.51953 17.0798 8.51953C17.2276 8.51953 17.3508 8.57161 17.4493 8.67578L18.2305 9.3789C18.3291 9.47005 18.3784 9.58724 18.3784 9.73047C18.3784 9.87369 18.3291 9.99088 18.2305 10.082L12.0017 15.8242C11.9031 15.9284 11.7765 15.9805 11.6216 15.9805C11.4668 15.9805 11.3401 15.9284 11.2415 15.8242Z"/></g></svg>