<svg xmlns="http://www.w3.org/2000/svg" width="20" height="21" fill="none" viewBox="0 0 20 21"><path fill="#969BA0" d="M13.375 2.36815L10.375 0.636324C10.261 0.570498 10.1317 0.535843 10 0.535843C9.86835 0.535843 9.73901 0.570498 9.625 0.636324L6.625 2.36815C6.51101 2.43396 6.41635 2.52861 6.35052 2.64259C6.2847 2.75658 6.25003 2.88587 6.25 3.0175V6.07247L3.32913 11.9142C3.30706 11.9685 3.29167 12.0253 3.2833 12.0833L0.625 13.6181C0.51101 13.6839 0.416348 13.7786 0.350523 13.8926C0.284699 14.0066 0.25003 14.1359 0.25 14.2675V17.7325C0.249977 17.8642 0.284621 17.9935 0.350448 18.1076C0.416276 18.2216 0.510966 18.3163 0.625 18.3821L3.625 20.114C3.73904 20.1797 3.86836 20.2143 4 20.2143C4.13164 20.2143 4.26096 20.1797 4.375 20.114L7.375 18.3821C7.48903 18.3163 7.58372 18.2216 7.64955 18.1076C7.71538 17.9935 7.75002 17.8642 7.75 17.7325V16.75H12.25V17.7325C12.25 17.8642 12.2846 17.9935 12.3504 18.1076C12.4163 18.2216 12.511 18.3163 12.625 18.3821L15.625 20.114C15.739 20.1797 15.8684 20.2143 16 20.2143C16.1316 20.2143 16.261 20.1797 16.375 20.114L19.375 18.3821C19.489 18.3163 19.5837 18.2216 19.6496 18.1076C19.7154 17.9935 19.75 17.8642 19.75 17.7325V14.2675C19.75 14.1358 19.7154 14.0065 19.6496 13.8924C19.5837 13.7784 19.489 13.6837 19.375 13.6178L16.7167 12.0833C16.7083 12.0253 16.6929 11.9685 16.6709 11.9142L13.75 6.07277V3.0175C13.75 2.88587 13.7153 2.75658 13.6495 2.64259C13.5837 2.52861 13.489 2.43396 13.375 2.36815ZM7.75 3.45107L10 2.15207L12.25 3.45107V6.04892L10 7.34792L7.75 6.04892V3.45107ZM6.25 17.2989L4 18.5979L1.75 17.2989V14.7011L4 13.4021L6.25 14.7011V17.2989ZM7.75 15.25V14.2675C7.75002 14.1358 7.71538 14.0065 7.64955 13.8924C7.58372 13.7784 7.48903 13.6837 7.375 13.6178L4.87585 12.1754L7.225 7.47797L9.625 8.86367C9.73904 8.92941 9.86836 8.96402 10 8.96402C10.1316 8.96402 10.261 8.92941 10.375 8.86367L12.7754 7.47797L15.1241 12.1754L12.625 13.6181C12.511 13.684 12.4163 13.7787 12.3504 13.8927C12.2846 14.0068 12.25 14.1361 12.25 14.2678V15.25H7.75ZM18.25 17.2989L16 18.5979L13.75 17.2989V14.7011L16 13.4021L18.25 14.7011V17.2989Z"/></svg>