<svg xmlns="http://www.w3.org/2000/svg" width="84" height="84" fill="none" viewBox="0 0 84 84"><circle cx="42" cy="42" r="42" fill="#EDD53D"/><path fill="#fff" d="M45.6131 41.6811C45.8429 41.2829 45.7064 40.7738 45.3082 40.544C44.9099 40.3141 44.4009 40.4507 44.1712 40.8489C43.6971 41.6703 42.8137 42.1806 41.8655 42.1806C40.9165 42.1806 40.0324 41.6703 39.5584 40.8489C39.3286 40.4507 38.8196 40.3141 38.4213 40.544C38.0232 40.7738 37.8867 41.2829 38.1165 41.6811C38.8869 43.016 40.3235 43.8455 41.8655 43.8455C43.4067 43.8455 44.8428 43.0162 45.6131 41.6811Z"/><path fill="#fff" d="M65.7051 69.7939L63.1747 59.5201C62.6704 57.2447 60.5002 56.1075 58.3459 55.9704C57.9973 55.5799 57.5038 55.3199 56.9471 55.2819L52.9373 55.0083C52.9494 55.1583 47.8619 54.2717 47.7478 54.2657C47.2825 54.1906 46.9447 53.7945 46.9447 53.3239V49.298C48.0902 48.887 49.1314 48.3422 50.0549 47.6835C51.5852 50.0936 54.2782 51.6048 57.1711 51.6048C61.813 51.6048 65.5895 47.8278 65.5895 43.1853C65.5895 41.2713 64.9298 39.3976 63.732 37.9095C62.6929 36.6186 61.2858 35.659 59.7191 35.1602V32.5915C59.7191 31.1739 58.5659 30.0207 57.1483 30.0207H54.8082V27.8346C54.8082 27.2218 54.5014 26.6561 53.9877 26.3212C53.4736 25.9862 52.8318 25.9341 52.271 26.1817C43.0044 30.2732 34.6184 27.5415 31.4429 26.1773C30.8825 25.9367 30.2436 25.9934 29.7342 26.3289C29.2252 26.6643 28.9213 27.2283 28.9213 27.8378V30.0206H27.3764V22.7047C27.3764 18.8228 30.534 15.6648 34.4152 15.6648H49.3141C53.1953 15.6648 56.3529 18.8228 56.3529 22.7047V26.9519C56.3529 27.4117 56.7256 27.7843 57.1853 27.7843C57.645 27.7843 58.0177 27.4117 58.0177 26.9519V22.7047C58.0177 17.905 54.1133 14 49.3141 14H34.4152C29.616 14 25.7116 17.905 25.7116 22.7047V30.1724C24.7208 30.5297 24.0103 31.479 24.0103 32.5915V35.16C22.4438 35.6589 21.0367 36.6185 19.9975 37.9094C18.7997 39.3975 18.14 41.2712 18.14 43.1852C18.14 47.8277 21.9165 51.6047 26.5584 51.6047C29.4515 51.6047 32.1448 50.0933 33.675 47.6827C34.5984 48.3412 35.6395 48.8858 36.7847 49.2967V53.3238C36.7847 53.7943 36.447 54.1906 35.9821 54.2656C34.9932 54.3816 31.5888 55.0772 30.7923 55.0082L26.7825 55.2818C26.2256 55.3196 25.7322 55.5798 25.3836 55.9701C22.9227 56.1583 21.1251 57.3232 20.5549 59.5196L18.0244 69.7937C17.9144 70.2401 18.1872 70.6911 18.6336 70.801C18.7004 70.8175 18.7674 70.8254 18.8332 70.8254C19.2074 70.8254 19.5473 70.5714 19.6408 70.1919L22.1713 59.9176C22.4365 58.7343 23.597 57.8273 24.8558 57.7416V69.993C24.8558 70.4529 25.2285 70.8254 25.6883 70.8254C26.148 70.8254 26.5207 70.4529 26.5207 69.993V57.3443C26.5207 57.1335 26.6854 56.9571 26.8956 56.9428L30.9055 56.6692C31.1761 56.6519 31.4341 56.7988 31.5636 57.0462C33.1778 60.1286 36.2575 62.3343 39.8015 62.9459C40.2543 63.0238 40.6852 62.7203 40.7634 62.2672C40.8417 61.8143 40.5378 61.3835 40.0847 61.3054C37.1022 60.7905 34.509 58.9665 33.1143 56.4134L36.2471 55.9093C37.5234 55.7032 38.4496 54.6159 38.4496 53.3239V48.702C38.4311 48.4147 38.2826 48.0117 37.8608 47.903C35.7036 47.2343 33.8903 46.0258 32.617 44.4077C31.2892 42.7205 30.5871 40.6159 30.5862 38.3213C30.5862 38.32 30.5864 38.3187 30.5864 38.3174V33.3965L32.2687 35.691C32.417 37.9265 34.2819 39.7003 36.5543 39.7003C38.7591 39.7003 40.5804 38.0306 40.8225 35.8895C41.2233 35.6969 41.9823 35.4788 42.9101 35.9131C43.1629 38.0428 44.9786 39.7003 47.1753 39.7003C49.4477 39.7003 51.3126 37.9266 51.4609 35.691L53.1432 33.3965V38.3174C53.1432 38.3187 53.1434 38.32 53.1434 38.3213C53.1426 40.6162 52.4405 42.7208 51.1126 44.4083C49.8393 46.0267 48.0262 47.2353 45.8692 47.9041C45.8664 47.905 45.8637 47.9058 45.861 47.9067C45.127 48.134 44.3526 48.2976 43.5592 48.393C43.1028 48.448 42.7773 48.8624 42.8322 49.319C42.8831 49.7416 43.2423 50.052 43.6576 50.052C43.6908 50.052 43.7243 50.0499 43.7581 50.0459C44.2736 49.9838 44.7822 49.8953 45.2799 49.7826V53.3238C45.2799 54.6158 46.2062 55.7031 47.4828 55.9092L50.6153 56.4133C49.2336 58.9422 46.6676 60.7613 43.7177 61.2925C43.2652 61.3739 42.9645 61.8067 43.046 62.2592C43.1274 62.7117 43.5602 63.0121 44.0127 62.9309C47.5189 62.2996 50.5668 60.0998 52.1659 57.0462C52.2954 56.7988 52.5537 56.6524 52.824 56.6692L56.8339 56.9428C57.0441 56.9571 57.2088 57.1335 57.2088 57.3443V69.993C57.2088 70.4529 57.5815 70.8254 58.0412 70.8254C58.5009 70.8254 58.8736 70.4529 58.8736 69.993V57.7418C60.0623 57.81 61.2624 58.6719 61.5582 59.9181L64.0887 70.1922C64.1822 70.5717 64.5221 70.8257 64.8963 70.8257C64.9622 70.8257 65.0291 70.8178 65.0959 70.8013C65.5423 70.6914 65.8151 70.2404 65.7051 69.7939ZM57.1483 31.6855C57.6479 31.6855 58.0543 32.0919 58.0543 32.5915V36.579C58.0543 37.0786 57.6479 37.485 57.1483 37.485H54.8082V31.6855H57.1483ZM25.6754 32.5915C25.6754 32.0919 26.0818 31.6855 26.5814 31.6855H28.9215V37.485H26.5814C26.0818 37.485 25.6754 37.0786 25.6754 36.579V32.5915ZM32.3791 46.6126C31.1732 48.6514 28.9511 49.9399 26.5586 49.9399C22.8347 49.9399 19.805 46.9097 19.805 43.1852C19.805 40.3764 21.4999 37.9294 24.0335 36.918C24.2 38.1758 25.2787 39.1498 26.5813 39.1498H28.9506C29.1446 42.0919 30.3641 44.6823 32.3791 46.6126ZM36.5545 38.0355C35.1034 38.0355 33.9229 36.8549 33.9229 35.404C33.9229 33.9531 35.1034 32.7725 36.5545 32.7725C37.9945 32.7725 39.1675 33.9355 39.1852 35.3715C39.1842 35.3939 39.1843 35.4162 39.1852 35.4386C39.1663 36.8736 37.9938 38.0355 36.5545 38.0355ZM40.6704 34.1741C40.1401 32.4027 38.4961 31.1077 36.5543 31.1077C34.876 31.1077 33.4203 32.0756 32.7136 33.482L30.5862 30.5802V27.8379C30.5862 27.7872 30.6078 27.7473 30.6503 27.7192C30.6931 27.6909 30.7387 27.6869 30.786 27.7071C32.8369 28.5884 36.9323 30.006 42.0444 30.0057C45.346 30.0056 49.0723 29.4141 52.9435 27.705C52.99 27.6843 53.0357 27.6882 53.0788 27.7164C53.1216 27.7442 53.1434 27.7841 53.1434 27.8348V30.5804L51.016 33.4822C50.3093 32.0758 48.8536 31.1079 47.1753 31.1079C45.2301 31.1079 43.5837 32.4077 43.0565 34.184C42.1177 33.8866 41.2904 33.9829 40.6704 34.1741ZM47.1753 38.0355C45.7242 38.0355 44.5438 36.8549 44.5438 35.404C44.5438 33.9531 45.7242 32.7725 47.1753 32.7725C48.6263 32.7725 49.8068 33.9531 49.8068 35.404C49.8068 36.8549 48.6263 38.0355 47.1753 38.0355ZM54.779 39.1498H57.1483C58.4509 39.1498 59.5296 38.1758 59.6961 36.918C62.2297 37.9294 63.9246 40.3765 63.9246 43.1852C63.9246 46.9098 60.8949 49.9399 57.171 49.9399C54.7788 49.9399 52.5568 48.6518 51.3508 46.6131C53.3658 44.6827 54.5852 42.0921 54.779 39.1498Z"/><path fill="#fff" d="M32.2325 65.2569C32.0355 64.8416 31.5389 64.6644 31.1236 64.8616C30.7083 65.0587 30.5313 65.555 30.7283 65.9703L32.8056 70.3498C32.948 70.65 33.2468 70.8257 33.5583 70.8257C33.6779 70.8257 33.7993 70.7998 33.9145 70.7451C34.3298 70.5481 34.5068 70.0517 34.3098 69.6364L32.2325 65.2569Z"/><path fill="#fff" d="M52.6061 64.8615C52.1906 64.6646 51.6943 64.8414 51.4972 65.2569L49.4199 69.6363C49.2229 70.0516 49.3999 70.5481 49.8152 70.7451C49.9304 70.7997 50.0518 70.8257 50.1714 70.8257C50.4829 70.8257 50.7817 70.65 50.9241 70.3498L53.0014 65.9703C53.1984 65.555 53.0214 65.0585 52.6061 64.8615Z"/></svg>