<svg xmlns="http://www.w3.org/2000/svg" width="84" height="84" fill="none" viewBox="0 0 84 84"><circle cx="42" cy="42" r="42" fill="#00D797"/><path fill="#fff" d="M61.216 61.071C60.5619 59.035 58.9517 57.4395 56.909 56.8028C56.6023 56.7047 56.1562 56.8524 55.9756 57.3039L53.1579 66.7424C53.0406 67.1354 53.2641 67.5491 53.6571 67.6664C53.728 67.6876 53.7995 67.6976 53.8698 67.6976C54.1895 67.6976 54.485 67.4894 54.5811 67.1673L57.1685 58.5003C58.4126 59.1026 59.3733 60.1907 59.802 61.5252L61.619 67.1819C61.7201 67.497 62.0119 67.6977 62.3259 67.6977C62.4012 67.6977 62.4777 67.6862 62.5532 67.662C62.9437 67.5365 63.1585 67.1183 63.0332 66.7279L61.216 61.071Z"/><path fill="#fff" d="M66.8172 47.7136C66.4343 46.1508 65.4767 44.5433 64.1208 43.1874C62.7648 41.8314 61.1574 40.8738 59.5945 40.4909C58.7635 40.2873 57.9896 40.2562 57.3033 40.3889C57.8527 38.5612 57.7812 37.0347 57.7642 36.7789V33.3571V26.3159C57.7597 25.202 57.579 23.0331 56.4192 21.0216C55.2554 19.0028 53.3917 17.7024 51.0303 17.2608C46.7225 16.4544 43.077 17.7354 42 18.1759C40.9231 17.7354 37.2776 16.4546 32.9711 17.2608C30.609 17.7024 28.7451 19.0028 27.5809 21.0215C26.421 23.0329 26.2403 25.2019 26.2357 26.3188V28.8673C26.2357 29.2774 26.5681 29.6099 26.9784 29.6099C27.3886 29.6099 27.721 29.2774 27.721 28.8673V26.3219C27.7248 25.3552 27.8791 23.4776 28.8676 21.7634C29.8217 20.1089 31.2941 19.0851 33.2441 18.7206C37.7948 17.8687 41.6456 19.6387 41.6829 19.6562C41.8838 19.7511 42.1163 19.7511 42.3172 19.6562C42.3553 19.6382 46.1848 17.8648 50.7571 18.7206C52.7065 19.0852 54.1787 20.1089 55.1326 21.7634C56.121 23.4776 56.2751 25.3552 56.279 26.3188V31.0634H53.4301V22.7718C53.4301 22.3616 53.0977 22.0291 52.6875 22.0291C52.2773 22.0291 51.9449 22.3616 51.9449 22.7718V24.8568C50.6639 26.8045 48.9507 28.9432 46.3953 28.8353H37.3898C35.5919 28.8353 33.9503 27.9248 32.9984 26.3997L32.0553 24.8885V22.7718C32.0553 22.3616 31.7229 22.0291 31.3127 22.0291C30.9024 22.0291 30.5701 22.3616 30.5701 22.7718L30.5696 31.0636H28.5294C27.2648 31.0636 26.2359 32.0925 26.2359 33.3572V33.3908C26.2359 33.3921 26.2357 33.3934 26.2357 33.3947V36.779C26.2187 37.0348 26.1473 38.5612 26.6967 40.3889C26.0104 40.2562 25.2365 40.2872 24.4054 40.4909C22.8426 40.8738 21.2352 41.8314 19.8791 43.1874C18.5232 44.5434 17.5656 46.1509 17.1827 47.7136C16.7676 49.4083 17.0652 50.8679 18.0208 51.8235C18.695 52.4976 19.6198 52.8443 20.7012 52.8443C21.1527 52.8443 21.6315 52.7839 22.1307 52.6615C23.6934 52.2787 25.3009 51.3211 26.657 49.9651C28.0129 48.6091 28.9705 47.0017 29.3533 45.4389C29.4078 45.2165 29.4493 44.9985 29.4794 44.7848C31.3858 46.4342 33.7761 47.0785 35.7685 47.2984C36.3129 47.6028 36.8936 47.8678 37.5087 48.0889V53.5603L36.2236 53.9606C35.8367 53.3533 35.0804 53.0471 34.3561 53.2623L31.5306 54.1028C31.1069 54.2286 30.7574 54.5119 30.5467 54.9006C30.397 55.1766 30.3318 55.4822 30.3507 55.7877L27.0911 56.8029C25.0489 57.4393 23.4392 59.0349 22.785 61.0709L20.9671 66.7277C20.8417 67.1182 21.0564 67.5364 21.4469 67.6619C21.5225 67.6863 21.599 67.6977 21.6744 67.6977C21.9883 67.6977 22.28 67.497 22.3813 67.1822L24.1992 61.5254C24.628 60.1906 25.5885 59.1023 26.8322 58.5003L29.4196 67.1674C29.5158 67.4895 29.811 67.6977 30.1309 67.6977C30.2012 67.6977 30.2728 67.6876 30.3436 67.6666C30.7366 67.5492 30.9601 67.1355 30.8427 66.7425L28.2336 58.0026L30.7319 57.2246L33.6888 67.1666C33.7848 67.4891 34.0802 67.6977 34.4004 67.6977C34.4705 67.6977 34.5418 67.6877 34.6124 67.6668C35.0056 67.5498 35.2293 67.1363 35.1125 66.7432L31.8389 55.7366C31.8226 55.6815 31.8372 55.6366 31.8525 55.6085C31.8678 55.5803 31.8978 55.5432 31.9539 55.5264L34.7794 54.6859C34.8693 54.6593 34.9643 54.7102 34.991 54.7997L38.6693 67.1667C38.7863 67.5598 39.1995 67.7837 39.5929 67.6669C39.9859 67.5499 40.2098 67.1364 40.0929 66.7433L36.7086 55.3651L38.4616 54.8191C38.6337 54.7828 39.0475 54.4536 38.994 54.1051V51.7712C39.5094 51.8604 40.1913 52.0641 40.6661 52.5284C41.0637 52.9173 41.2572 53.4332 41.2575 54.1054V54.1071V57.5822C41.2575 57.9923 41.5899 58.3248 42.0001 58.3248C42.4103 58.3248 42.7427 57.9923 42.7427 57.5822V54.109C42.7427 54.1083 42.7428 54.1077 42.7428 54.1072C42.7428 54.1066 42.7428 54.1061 42.7428 54.1055C42.7431 53.4358 42.935 52.9214 43.3297 52.533C43.8062 52.0639 44.49 51.8594 45.0063 51.7704V54.1027C45.0698 54.4202 45.0502 54.6239 45.5379 54.8189L53.1383 57.1848C53.2119 57.2076 53.2861 57.2185 53.3592 57.2185C53.6757 57.2185 53.969 57.0146 54.0681 56.6964C54.1899 56.3048 53.9712 55.8885 53.5797 55.7667L46.4914 53.5602V48.0956C47.1133 47.8736 47.7018 47.6058 48.2537 47.2961C50.2402 47.074 52.6179 46.429 54.5166 44.7882C54.7487 46.4665 55.7226 48.3446 57.3431 49.9651C58.6991 51.3212 60.3066 52.2787 61.8694 52.6615C62.3686 52.7838 62.8473 52.8443 63.2989 52.8443C64.3801 52.8443 65.3052 52.4976 65.9791 51.8235C66.9347 50.8679 67.2325 49.4083 66.8172 47.7136ZM53.4301 32.5489H55.4707C55.9164 32.5489 56.279 32.9115 56.279 33.3572V36.8058V36.8427C56.279 37.2884 55.9164 37.6509 55.4707 37.6509H53.4301V32.5489ZM27.7212 33.3571C27.7212 32.9115 28.0838 32.5488 28.5294 32.5488H30.5696V37.6508H28.5294C28.0838 37.6508 27.7212 37.2882 27.7212 36.8425V33.3571ZM25.6066 48.9149C24.44 50.0816 23.0799 50.8998 21.7772 51.219C20.6068 51.5057 19.6455 51.3476 19.071 50.7733C18.4967 50.199 18.3384 49.238 18.6253 48.067C18.9445 46.7643 19.7627 45.4043 20.9295 44.2376C22.0961 43.0709 23.4562 42.2526 24.7589 41.9334C25.5385 41.7219 26.8043 41.6989 27.465 42.379C28.7327 43.6468 27.8817 46.6398 25.6066 48.9149ZM29.0055 41.9571C28.5639 41.2765 28.0789 40.0387 27.9132 39.136H30.5958C30.7514 41.4741 31.6408 43.5606 33.116 45.1968C31.3059 44.5473 29.9309 43.4642 29.0055 41.9571ZM43.5815 47.2662C43.1747 47.3179 42.8869 47.6899 42.9388 48.0967C42.9865 48.4718 43.3061 48.7456 43.6745 48.7456C43.7058 48.7456 43.7375 48.7436 43.7693 48.7395C44.1921 48.6856 44.6044 48.613 45.0061 48.5233V50.2693C44.2631 50.3686 43.1269 50.6535 42.2956 51.4665C42.1886 51.5713 42.0906 51.6818 42 51.7967C41.9094 51.6818 41.8115 51.5712 41.7045 51.4665C40.8731 50.6533 39.7368 50.3682 38.9938 50.2689V47.5588C38.9779 47.3032 38.8449 46.9424 38.4687 46.8456C36.5666 46.2556 34.9678 45.1897 33.8451 43.7631C32.6752 42.2764 32.0563 40.4221 32.0549 38.4004C32.0549 38.398 32.0553 38.3957 32.0553 38.3934L32.0548 27.6478C33.3086 29.3307 35.2641 30.3204 37.3898 30.3204H46.3953C48.5604 30.3377 50.7119 29.1777 51.9449 27.3577V38.3935C51.9449 40.7507 51.1218 42.84 49.565 44.4353C48.0781 45.9587 45.9532 46.9641 43.5815 47.2662ZM50.8969 45.1922C52.3571 43.5659 53.2502 41.4865 53.4056 39.1361H56.0891C55.6196 41.7676 53.6749 44.2786 50.8969 45.1922ZM64.9289 50.7732C64.3546 51.3474 63.3933 51.5057 62.2228 51.2189C60.92 50.8997 59.56 50.0815 58.3934 48.9148C57.2267 47.7481 56.4084 46.3881 56.0892 45.0853C55.8563 44.1347 55.9169 43.3225 56.2552 42.7431C56.7677 41.8435 58.0715 41.6118 59.241 41.9333C60.5438 42.2525 61.9039 43.0708 63.0705 44.2375C64.2372 45.4042 65.0554 46.7642 65.3747 48.0669C65.6615 49.2379 65.5033 50.199 64.9289 50.7732Z"/><path fill="#fff" d="M43.6912 40.4194C43.3361 40.2144 42.8818 40.336 42.6767 40.6914C42.5377 40.9324 42.2785 41.0821 42.0004 41.0821C41.7219 41.0821 41.4624 40.9324 41.3234 40.6914C41.1182 40.3361 40.664 40.2145 40.309 40.4194C39.9537 40.6244 39.832 41.0785 40.037 41.4338C40.4406 42.133 41.1929 42.5673 42.0004 42.5673C42.8074 42.5673 43.5596 42.133 43.9631 41.4338C44.1681 41.0786 44.0464 40.6244 43.6912 40.4194Z"/><path fill="#fff" d="M42.0986 38.8568C42.5088 38.8568 42.8412 38.5243 42.8412 38.1142V36.545C42.8412 36.1348 42.5088 35.8023 42.0986 35.8023C41.6884 35.8023 41.356 36.1348 41.356 36.545V38.1142C41.356 38.5243 41.6884 38.8568 42.0986 38.8568Z"/></svg>