<svg xmlns="http://www.w3.org/2000/svg" width="84" height="84" fill="none" viewBox="0 0 84 84"><circle cx="42" cy="42" r="42" fill="#913DED"/><path fill="#fff" d="M65.5938 69.7939L63.2155 60.1418C62.6475 57.5918 60.2411 56.0769 57.7299 55.9193C57.6282 55.7391 57.5143 55.5653 57.3874 55.4002C57.9747 54.6354 58.3006 53.6926 58.3006 52.7147C58.3006 51.7368 57.9747 50.7939 57.3874 50.0291C57.9747 49.265 58.3006 48.3225 58.3006 47.344C58.3006 46.3659 57.9745 45.4229 57.3872 44.6581C57.9747 43.8933 58.3006 42.9503 58.3006 41.9722C58.3006 40.9283 57.9351 39.9686 57.3264 39.2124C58.6149 39.0746 59.6218 37.981 59.6218 36.6566V32.6872C59.6218 31.5332 58.8573 30.5544 57.8082 30.2303V22.195C57.8081 17.6762 54.1318 14 49.6131 14H34.005C29.4862 14 25.81 17.6762 25.81 22.195V27.045C25.81 27.5047 26.1826 27.8774 26.6424 27.8774C27.1022 27.8774 27.4748 27.5047 27.4748 27.045V22.195C27.4748 18.5942 30.4043 15.6648 34.005 15.6648H40.9766V23.0369C40.0159 24.033 36.0781 27.9647 32.3557 29.5059H32.3556C31.3769 29.9107 30.4936 30.116 29.73 30.1163C29.7293 30.1163 29.7286 30.1162 29.728 30.1162H26.5672C25.1496 30.1162 23.9964 31.2695 23.9964 32.687V36.6564C23.9964 37.9809 25.0032 39.0743 26.2918 39.2122C25.683 39.9683 25.3176 40.928 25.3176 41.972C25.3176 42.9501 25.6436 43.8931 26.231 44.6579C25.6435 45.4227 25.3176 46.3656 25.3176 47.3438C25.3176 48.3221 25.6435 49.2647 26.2308 50.0289C25.6435 50.7937 25.3176 51.7364 25.3176 52.7144C25.3176 53.6925 25.6435 54.6352 26.2308 55.4C26.1039 55.565 25.99 55.7388 25.8883 55.9191C23.1357 56.1332 21.0525 57.6125 20.4028 60.1411L18.0244 69.7937C17.9144 70.2401 18.1871 70.691 18.6335 70.8011C18.7004 70.8176 18.7673 70.8255 18.8332 70.8255C19.2073 70.8255 19.5473 70.5715 19.6408 70.192L22.0194 60.539C22.3689 59.0373 23.7521 57.8514 25.3353 57.6945C25.2692 58.318 25.3917 59.2071 25.7277 59.9384H24.8288C24.369 59.9384 23.9964 60.3111 23.9964 60.7708C23.9964 61.2305 24.369 61.6032 24.8288 61.6032H25.7277C25.461 62.1779 25.3174 62.8089 25.3174 63.4557C25.3174 65.5246 26.7497 67.2645 28.6746 67.7381V69.993C28.6746 70.4527 29.0472 70.8254 29.507 70.8254C29.9668 70.8254 30.3394 70.4527 30.3394 69.993V67.8231C32.4823 67.5243 34.1376 65.6803 34.1376 63.4559C34.1376 62.8089 33.9943 62.178 33.7279 61.6034H34.4384C34.8982 61.6034 35.2708 61.2307 35.2708 60.771C35.2708 60.3113 34.8982 59.9386 34.4384 59.9386H33.7279C34.1953 58.9444 34.304 57.5179 33.7753 56.336L37.3522 55.7606L39.6334 57.4909C39.941 57.7201 40.3736 57.9656 40.949 58.1164V61.9637C40.949 62.4234 41.3216 62.7961 41.7814 62.7961C42.2412 62.7961 42.6138 62.4234 42.6138 61.9637V58.1278C43.0226 58.008 43.4497 57.8912 43.9848 57.491L46.2661 55.7606L49.843 56.336C49.6068 56.8822 49.4807 57.4767 49.4807 58.0852C49.4807 58.7325 49.6241 59.3639 49.8903 59.9387H49.2089C48.7491 59.9387 48.3765 60.3114 48.3765 60.7711C48.3765 61.2308 48.7491 61.6035 49.2089 61.6035H49.8901C49.6239 62.1781 49.4806 62.8091 49.4806 63.4559C49.4806 65.6804 51.1357 67.5245 53.2788 67.8231V69.993C53.2788 70.4527 53.6514 70.8254 54.1112 70.8254C54.571 70.8254 54.9436 70.4527 54.9436 69.993V67.7384C56.8684 67.2647 58.3007 65.5249 58.3007 63.456C58.3007 62.8092 58.1572 62.1782 57.8905 61.6035H58.4012C58.861 61.6035 59.2336 61.2308 59.2336 60.7711C59.2336 60.3114 58.861 59.9387 58.4012 59.9387H57.8905C58.1517 59.3551 58.3646 58.5102 58.2829 57.6949C59.8012 57.8289 61.2316 58.9928 61.5989 60.5398L63.9774 70.1924C64.071 70.5718 64.4108 70.8259 64.7849 70.8259C64.8509 70.8259 64.9179 70.818 64.9847 70.8015C65.4311 70.6913 65.7038 70.2403 65.5938 69.7939ZM42.6414 15.6648H49.6131C53.2137 15.6648 56.1433 18.5942 56.1433 22.195V30.1163H53.89C49.8154 30.1163 43.8663 24.2801 42.6413 23.0325V15.6648H42.6414ZM26.5672 37.5624C26.0676 37.5624 25.6612 37.1559 25.6612 36.6564V32.687C25.6612 32.1875 26.0676 31.781 26.5672 31.781H28.8956V37.5624H26.5672ZM29.7281 66.2017C28.214 66.2017 26.9823 64.97 26.9823 63.4559C26.9823 62.7679 27.2422 62.1075 27.7038 61.6034H31.7523C32.2131 62.1072 32.4727 62.7674 32.4727 63.4559C32.4728 64.97 31.2415 66.2017 29.7281 66.2017ZM31.5408 50.6534C32.1331 51.175 32.4727 51.9263 32.4727 52.7146C32.4727 53.5028 32.1329 54.2542 31.5408 54.7758C31.3614 54.9338 31.2585 55.1616 31.2586 55.4008C31.2587 55.64 31.3617 55.8676 31.5414 56.0255C32.1333 56.5459 32.4728 57.2967 32.4728 58.0852C32.4728 58.7741 32.2133 59.4347 31.7526 59.9386H27.7036C27.2422 59.4343 26.9823 58.7737 26.9823 58.0852C26.9823 57.2974 27.3221 56.5467 27.9148 56.0255C28.0945 55.8676 28.1975 55.64 28.1976 55.4008C28.1977 55.1616 28.0948 54.9338 27.9153 54.7758C27.3223 54.2534 26.9823 53.5021 26.9823 52.7146C26.9823 51.927 27.3223 51.1756 27.9153 50.6534C28.0948 50.4953 28.1977 50.2676 28.1976 50.0284C28.1975 49.7893 28.0945 49.5616 27.9148 49.4037C27.3221 48.8826 26.9823 48.1319 26.9823 47.344C26.9823 46.5563 27.3223 45.805 27.9153 45.2827C28.0948 45.1247 28.1976 44.8972 28.1976 44.6581C28.1976 44.419 28.0948 44.1915 27.9153 44.0335C27.3223 43.511 26.9823 42.7598 26.9823 41.9722C26.9823 40.7355 27.8049 39.6877 28.9317 39.3456C29.1521 42.2599 30.3858 44.8216 32.4032 46.7275C32.4493 46.9279 32.4727 47.1344 32.4727 47.344C32.4727 48.1324 32.1332 48.8832 31.5413 49.4037C31.3616 49.5616 31.2586 49.7893 31.2585 50.0284C31.2584 50.2676 31.3614 50.4953 31.5408 50.6534ZM36.7391 54.1729L33.682 54.6647C33.978 54.0644 34.1375 53.3982 34.1375 52.7146C34.1375 51.7362 33.8119 50.7934 33.2253 50.029C33.6708 49.4489 33.9652 48.7655 34.0814 48.0417C34.8883 48.5645 35.7768 49.0046 36.7391 49.35V54.1729ZM49.936 54.6647L46.8788 54.1729V49.3569C47.8387 49.0145 48.7285 48.5757 49.5379 48.0515C49.6551 48.7717 49.9491 49.4515 50.3926 50.029C49.806 50.7934 49.4804 51.7362 49.4804 52.7146C49.4805 53.3982 49.64 54.0644 49.936 54.6647ZM50.3666 45.228C48.6856 46.951 46.283 48.0885 43.6016 48.431C43.1457 48.4892 42.8231 48.9061 42.8814 49.3622C42.935 49.7824 43.2933 50.0893 43.706 50.0893C43.7411 50.0893 43.7768 50.087 43.8126 50.0824C44.2917 50.0212 44.759 49.9386 45.2141 49.8368V54.4688L42.9785 56.1646C42.2898 56.687 41.3281 56.6871 40.6395 56.1646L38.4039 54.4688V48.7555C38.3863 48.4696 38.2366 48.0647 37.8156 47.9565C35.6645 47.2896 33.856 46.0838 32.5859 44.4695C31.2609 42.7855 30.5605 40.685 30.5605 38.3951V31.7259C31.3185 31.6277 32.1326 31.3998 32.9911 31.0449C32.9915 31.0446 32.992 31.0445 32.9923 31.0444C36.6773 29.5187 40.3855 26.0084 41.814 24.5645C43.5776 26.3186 48.7625 31.1363 53.0576 31.7225V38.393C53.0576 38.3938 53.0575 38.3944 53.0575 38.3951C53.0575 38.3955 53.0576 38.3961 53.0576 38.3965C53.0573 41.0616 52.1269 43.4239 50.3666 45.228ZM55.7027 45.2826C56.2957 45.805 56.6358 46.5563 56.6358 47.3439C56.6358 48.1317 56.296 48.8824 55.7033 49.4036C55.5236 49.5615 55.4206 49.7892 55.4205 50.0283C55.4204 50.2675 55.5233 50.4953 55.7027 50.6533C56.2957 51.1756 56.6358 51.9269 56.6358 52.7144C56.6358 53.502 56.2957 54.2534 55.7027 54.7757C55.5233 54.9337 55.4204 55.1615 55.4205 55.4007C55.4206 55.6398 55.5236 55.8675 55.7033 56.0254C56.296 56.5465 56.6358 57.2972 56.6358 58.0851C56.6358 58.7736 56.3759 59.4342 55.9145 59.9385H55.4264C54.9666 59.9385 54.594 60.3112 54.594 60.7709C54.594 61.2306 54.9666 61.6033 55.4264 61.6033H55.9142C56.3758 62.1075 56.6357 62.7679 56.6357 63.4558C56.6357 64.9699 55.4039 66.2016 53.8899 66.2016C52.3765 66.2016 51.1453 64.9699 51.1453 63.4558C51.1453 62.6681 51.485 61.9173 52.0771 61.3956C52.4128 61.1118 52.4842 60.4963 52.0771 60.1464C51.4849 59.6247 51.1453 58.8733 51.1453 58.0851C51.1453 57.2967 51.4848 56.5459 52.0767 56.0254C52.2564 55.8675 52.3594 55.6398 52.3595 55.4007C52.3596 55.1615 52.2567 54.9337 52.0772 54.7757C51.485 54.2541 51.1454 53.5027 51.1454 52.7144C51.1454 51.9262 51.4851 51.1748 52.0772 50.6533C52.2567 50.4951 52.3596 50.2675 52.3595 50.0283C52.3594 49.7892 52.2564 49.5615 52.0767 49.4036C51.4848 48.8832 51.1453 48.1324 51.1453 47.3439C51.1453 47.1383 51.1681 46.9359 51.2123 46.7393C53.2194 44.8441 54.4652 42.2853 54.6863 39.3455C55.8132 39.6875 56.6358 40.7354 56.6358 41.9721C56.6358 42.7598 56.2957 43.511 55.7027 44.0334C55.5233 44.1914 55.4205 44.4189 55.4205 44.658C55.4205 44.8971 55.5232 45.1246 55.7027 45.2826ZM54.7225 37.5624V31.781H57.0509C57.5505 31.781 57.9569 32.1875 57.9569 32.687V36.6564C57.9569 37.1559 57.5505 37.5624 57.0509 37.5624H54.7225Z"/><path fill="#fff" d="M43.7046 40.2491C43.3066 40.0194 42.7974 40.1557 42.5676 40.554C42.4117 40.8242 42.1212 40.992 41.8094 40.992C41.4973 40.992 41.2064 40.8242 41.0506 40.554C40.8206 40.1558 40.3115 40.0195 39.9135 40.2491C39.5153 40.479 39.3789 40.988 39.6086 41.3862C40.061 42.17 40.9043 42.6568 41.8094 42.6568C42.7141 42.6568 43.5571 42.17 44.0095 41.3862C44.2393 40.9881 44.1029 40.479 43.7046 40.2491Z"/><path fill="#fff" d="M41.9194 38.4977C42.3792 38.4977 42.7518 38.125 42.7518 37.6653V35.9063C42.7518 35.4466 42.3792 35.0739 41.9194 35.0739C41.4596 35.0739 41.087 35.4466 41.087 35.9063V37.6653C41.087 38.125 41.4597 38.4977 41.9194 38.4977Z"/><path fill="#fff" d="M46.44 37.5519C45.9877 37.5519 45.6211 37.9185 45.6211 38.3708C45.6211 38.8231 45.9877 39.1897 46.44 39.1897C46.8922 39.1897 47.2589 38.8231 47.2589 38.3708C47.2589 37.9185 46.8923 37.5519 46.44 37.5519Z"/><path fill="#fff" d="M49.493 37.5519C49.0408 37.5519 48.6742 37.9185 48.6742 38.3708C48.6742 38.8231 49.0408 39.1897 49.493 39.1897C49.9452 39.1897 50.3119 38.8231 50.3119 38.3708C50.3118 37.9185 49.9452 37.5519 49.493 37.5519Z"/><path fill="#fff" d="M47.8554 36.791C48.3076 36.791 48.6742 36.4244 48.6742 35.9721C48.6742 35.5199 48.3076 35.1533 47.8554 35.1533C47.4031 35.1533 47.0365 35.5199 47.0365 35.9721C47.0365 36.4244 47.4031 36.791 47.8554 36.791Z"/><path fill="#fff" d="M34.1249 37.5519C33.6727 37.5519 33.306 37.9185 33.306 38.3708C33.306 38.8231 33.6726 39.1897 34.1249 39.1897C34.5771 39.1897 34.9437 38.8231 34.9437 38.3708C34.9437 37.9185 34.5771 37.5519 34.1249 37.5519Z"/><path fill="#fff" d="M37.1779 37.5519C36.7257 37.5519 36.359 37.9185 36.359 38.3708C36.359 38.8231 36.7256 39.1897 37.1779 39.1897C37.6302 39.1897 37.9968 38.8231 37.9968 38.3708C37.9967 37.9185 37.6301 37.5519 37.1779 37.5519Z"/><path fill="#fff" d="M35.5404 35.1533C35.0881 35.1533 34.7215 35.5199 34.7215 35.9721C34.7215 36.4244 35.0881 36.791 35.5404 36.791C35.9926 36.791 36.3593 36.4244 36.3593 35.9721C36.3592 35.5199 35.9926 35.1533 35.5404 35.1533Z"/></svg>