<svg xmlns="http://www.w3.org/2000/svg" width="84" height="84" fill="none" viewBox="0 0 84 84"><circle cx="42" cy="42" r="42" fill="#3D92ED"/><path fill="#fff" d="M36.75 43.75C38.1345 43.75 39.4878 43.3395 40.639 42.5703C41.7901 41.8011 42.6873 40.7079 43.2172 39.4288C43.747 38.1497 43.8856 36.7422 43.6155 35.3844C43.3454 34.0265 42.6787 32.7792 41.6997 31.8003C40.7208 30.8213 39.4735 30.1546 38.1156 29.8845C36.7578 29.6144 35.3503 29.753 34.0712 30.2828C32.7921 30.8127 31.6989 31.7099 30.9297 32.861C30.1605 34.0122 29.75 35.3655 29.75 36.75C29.7518 38.606 30.4899 40.3854 31.8022 41.6978C33.1146 43.0101 34.894 43.7482 36.75 43.75ZM36.75 33.25C37.4422 33.25 38.1189 33.4553 38.6945 33.8399C39.2701 34.2244 39.7187 34.7711 39.9836 35.4106C40.2485 36.0502 40.3178 36.7539 40.1827 37.4328C40.0477 38.1118 39.7144 38.7354 39.2249 39.2249C38.7354 39.7144 38.1117 40.0477 37.4328 40.1828C36.7539 40.3178 36.0501 40.2485 35.4106 39.9836C34.7711 39.7187 34.2244 39.2701 33.8399 38.6945C33.4553 38.1189 33.25 37.4422 33.25 36.75C33.2513 35.8221 33.6204 34.9326 34.2765 34.2765C34.9326 33.6204 35.8221 33.2513 36.75 33.25Z"/><path fill="#fff" d="M64.092 48.2475C64.6697 47.4737 65.0557 46.574 65.2182 45.6222C65.3807 44.6703 65.3151 43.6935 65.0268 42.7719L63.9159 39.1575C63.3943 37.4432 62.3341 35.9427 60.8924 34.8785C59.4507 33.8144 57.7044 33.2433 55.9125 33.25H48.0601C47.5959 33.25 47.1508 33.4344 46.8226 33.7626C46.4944 34.0907 46.3101 34.5359 46.3101 35C46.3101 35.4641 46.4944 35.9092 46.8226 36.2374C47.1508 36.5656 47.5959 36.75 48.0601 36.75H55.9125C56.9552 36.7464 57.9713 37.0789 58.8101 37.6983C59.649 38.3176 60.2659 39.1908 60.5694 40.1884L61.6803 43.8013C61.8029 44.1998 61.8303 44.6215 61.7603 45.0325C61.6902 45.4435 61.5248 45.8324 61.2771 46.1678C61.0295 46.5032 60.7066 46.7759 60.3344 46.9638C59.9623 47.1518 59.5512 47.2498 59.1342 47.25H43.0887C43.0391 47.25 42.9977 47.274 42.9487 47.2782C42.8311 47.2736 42.7175 47.25 42.5981 47.25H31.6256C29.681 47.2429 27.7858 47.8631 26.2216 49.0185C24.6573 50.1739 23.5073 51.8029 22.9423 53.6637L21.6358 57.9075C21.3306 58.9006 21.2626 59.9515 21.4374 60.9756C21.6122 61.9998 22.0248 62.9687 22.6421 63.8044C23.2594 64.6401 24.0641 65.3193 24.9916 65.7875C25.9191 66.2556 26.9435 66.4997 27.9825 66.5H46.2401C47.2791 66.4998 48.3036 66.2558 49.2312 65.7877C50.1588 65.3196 50.9636 64.6404 51.5809 63.8046C52.1983 62.9689 52.611 62 52.7858 60.9758C52.9606 59.9516 52.8927 58.9007 52.5875 57.9075L51.2818 53.6641C50.9511 52.6073 50.4303 51.6198 49.7451 50.75H59.1342C60.0996 50.7544 61.0522 50.5299 61.9141 50.0949C62.7759 49.6599 63.5222 49.0268 64.092 48.2475ZM48.7658 61.7246C48.4756 62.1217 48.0954 62.4443 47.6563 62.666C47.2173 62.8877 46.7319 63.0021 46.2401 63H27.9825C27.4911 62.9999 27.0066 62.8845 26.5679 62.6631C26.1292 62.4417 25.7486 62.1204 25.4567 61.7251C25.1648 61.3298 24.9697 60.8715 24.8872 60.3871C24.8047 59.9026 24.837 59.4056 24.9816 58.9359L26.2873 54.6925C26.6341 53.5485 27.3409 52.5469 28.3025 51.8366C29.2641 51.1263 30.4293 50.7452 31.6248 50.75H42.5973C43.7927 50.7452 44.9579 51.1263 45.9195 51.8366C46.8811 52.5469 47.5879 53.5485 47.9348 54.6925L49.2404 58.9359C49.3877 59.4052 49.4214 59.9028 49.3389 60.3876C49.2564 60.8725 49.06 61.3309 48.7658 61.7251V61.7246Z"/><path fill="#fff" d="M51.625 29.75C52.8364 29.75 54.0206 29.3908 55.0279 28.7177C56.0351 28.0447 56.8202 27.0881 57.2837 25.9689C57.7473 24.8497 57.8686 23.6182 57.6323 22.4301C57.396 21.2419 56.8126 20.1506 55.956 19.294C55.0994 18.4374 54.008 17.854 52.8199 17.6177C51.6318 17.3814 50.4003 17.5027 49.2811 17.9662C48.1619 18.4298 47.2053 19.2149 46.5322 20.2221C45.8592 21.2294 45.5 22.4136 45.5 23.625C45.5019 25.2488 46.1479 26.8056 47.2961 27.9539C48.4444 29.1021 50.0011 29.748 51.625 29.75ZM51.625 21C52.1442 21 52.6517 21.154 53.0834 21.4424C53.515 21.7308 53.8515 22.1408 54.0502 22.6205C54.2489 23.1001 54.3008 23.6279 54.1996 24.1371C54.0983 24.6463 53.8483 25.114 53.4811 25.4811C53.114 25.8483 52.6463 26.0983 52.1371 26.1996C51.6279 26.3008 51.1001 26.2489 50.6205 26.0502C50.1408 25.8515 49.7308 25.515 49.4424 25.0834C49.1539 24.6517 49 24.1442 49 23.625C49.0008 22.929 49.2776 22.2618 49.7697 21.7697C50.2618 21.2776 50.929 21.0008 51.625 21Z"/></svg>