<svg xmlns="http://www.w3.org/2000/svg" width="245" height="225" fill="none" viewBox="0 0 245 225"><rect width="245" height="190" y="34.832" fill="url(#paint0_linear_16_2909)" rx="26"/><rect width="73" height="73" x="86" fill="#FAB914" rx="10"/><path stroke="#fff" stroke-linecap="round" stroke-linejoin="round" stroke-miterlimit="10" stroke-width="2" d="M142.85 55.05H103.15C102.73 55.05 102.38 54.71 102.38 54.28V51.37H143.61V54.28C143.62 54.7 143.27 55.05 142.85 55.05Z"/><path stroke="#fff" stroke-linecap="round" stroke-linejoin="round" stroke-miterlimit="10" stroke-width="2" d="M143.62 51.37C143.62 51.37 144.52 37.78 149.62 29.08C149.62 29.08 142.77 37.21 133.45 35.65C123 33.89 123 22.01 123 22.01C123 22.01 123 33.89 112.56 35.65C103.24 37.22 96.3901 29.08 96.3901 29.08C101.49 37.78 102.39 51.37 102.39 51.37"/><path stroke="#fff" stroke-linecap="round" stroke-linejoin="round" stroke-miterlimit="10" stroke-width="2" d="M106.72 35.44C108.12 34.14 109.4 31.27 109.72 25.25C109.72 25.25 113.39 32.93 118.06 33.23H118.07"/><path stroke="#fff" stroke-linecap="round" stroke-linejoin="round" stroke-miterlimit="10" stroke-width="2" d="M125.53 19.48C125.53 20.88 124.4 22.01 123 22.01C121.6 22.01 120.47 20.88 120.47 19.48C120.47 18.08 121.6 16.95 123 16.95C124.4 16.95 125.53 18.08 125.53 19.48Z"/><path stroke="#fff" stroke-linecap="round" stroke-linejoin="round" stroke-miterlimit="10" stroke-width="2" d="M111.69 22.8C111.69 24.2 110.56 25.33 109.16 25.33C107.76 25.33 106.63 24.2 106.63 22.8C106.63 21.4 107.76 20.27 109.16 20.27C110.55 20.27 111.69 21.4 111.69 22.8Z"/><path stroke="#fff" stroke-linecap="round" stroke-linejoin="round" stroke-miterlimit="10" stroke-width="2" d="M97.7299 26.85C97.7299 28.25 96.5999 29.38 95.1999 29.38C93.7999 29.38 92.6699 28.25 92.6699 26.85C92.6699 25.45 93.7999 24.32 95.1999 24.32C96.5999 24.32 97.7299 25.45 97.7299 26.85Z"/><path stroke="#fff" stroke-linecap="round" stroke-linejoin="round" stroke-miterlimit="10" stroke-width="2" d="M153.33 26.85C153.33 28.25 152.2 29.38 150.8 29.38C149.4 29.38 148.27 28.25 148.27 26.85C148.27 25.45 149.4 24.32 150.8 24.32C152.2 24.32 153.33 25.45 153.33 26.85Z"/><path stroke="#fff" stroke-linecap="round" stroke-linejoin="round" stroke-miterlimit="10" stroke-width="2" d="M127.93 33.24C132.61 32.94 136.28 25.26 136.28 25.26C136.6 31.28 137.88 34.15 139.28 35.45"/><path stroke="#fff" stroke-linecap="round" stroke-linejoin="round" stroke-miterlimit="10" stroke-width="2" d="M134.32 22.8C134.32 24.2 135.45 25.33 136.85 25.33C138.25 25.33 139.38 24.2 139.38 22.8C139.38 21.4 138.25 20.27 136.85 20.27C135.45 20.27 134.32 21.4 134.32 22.8Z"/><path stroke="#fff" stroke-linecap="round" stroke-linejoin="round" stroke-miterlimit="10" stroke-width="2" d="M126.01 42.26C126.01 44.79 124.66 46.83 123 46.83C121.34 46.83 119.99 44.78 119.99 42.26C119.99 39.73 121.34 37.69 123 37.69C124.66 37.69 126.01 39.73 126.01 42.26Z"/><path stroke="#fff" stroke-linecap="round" stroke-linejoin="round" stroke-miterlimit="10" stroke-width="2" d="M137.83 43.53C137.83 45.35 136.86 46.83 135.65 46.83C134.45 46.83 133.47 45.35 133.47 43.53C133.47 41.71 134.44 40.23 135.65 40.23C136.85 40.23 137.83 41.71 137.83 43.53Z"/><path stroke="#fff" stroke-linecap="round" stroke-linejoin="round" stroke-miterlimit="10" stroke-width="2" d="M112.52 43.53C112.52 45.35 111.55 46.83 110.35 46.83C109.15 46.83 108.17 45.35 108.17 43.53C108.17 41.71 109.14 40.23 110.35 40.23C111.55 40.23 112.52 41.71 112.52 43.53Z"/><rect width="198" height="60" x="22" y="139" fill="#fff" rx="8"/><path fill="#3D3D3D" d="M86.666 176.332C85.4616 176.332 84.4167 176.117 83.5312 175.688C82.6523 175.251 81.9688 174.643 81.4805 173.861C80.9987 173.074 80.7578 172.159 80.7578 171.117V161.908H83.707V170.854C83.707 171.459 83.821 171.986 84.0488 172.436C84.2832 172.878 84.6185 173.223 85.0547 173.471C85.4974 173.712 86.0345 173.832 86.666 173.832C87.2975 173.832 87.8314 173.712 88.2676 173.471C88.7103 173.223 89.0456 172.878 89.2734 172.436C89.5013 171.986 89.6152 171.459 89.6152 170.854V161.908H92.5645V171.117C92.5645 172.159 92.3236 173.07 91.8418 173.852C91.3665 174.633 90.6862 175.242 89.8008 175.678C88.9219 176.114 87.877 176.332 86.666 176.332ZM95.4551 179.525V165.316H98.3066V167.016H98.4531C98.6419 166.618 98.8893 166.283 99.1953 166.01C99.5078 165.73 99.8724 165.515 100.289 165.365C100.706 165.209 101.165 165.131 101.666 165.131C102.564 165.131 103.336 165.355 103.98 165.805C104.632 166.247 105.133 166.879 105.484 167.699C105.836 168.52 106.012 169.503 106.012 170.648V170.668C106.012 171.814 105.836 172.8 105.484 173.627C105.139 174.447 104.645 175.079 104 175.521C103.355 175.964 102.581 176.186 101.676 176.186C101.181 176.186 100.722 176.107 100.299 175.951C99.8822 175.795 99.5143 175.574 99.1953 175.287C98.8828 175.001 98.6354 174.659 98.4531 174.262H98.3066V179.525H95.4551ZM100.699 173.822C101.201 173.822 101.63 173.695 101.988 173.441C102.346 173.181 102.623 172.816 102.818 172.348C103.014 171.872 103.111 171.312 103.111 170.668V170.648C103.111 169.991 103.014 169.428 102.818 168.959C102.623 168.49 102.346 168.129 101.988 167.875C101.63 167.621 101.201 167.494 100.699 167.494C100.211 167.494 99.7845 167.621 99.4199 167.875C99.0553 168.129 98.7721 168.49 98.5703 168.959C98.375 169.428 98.2773 169.991 98.2773 170.648V170.668C98.2773 171.312 98.3783 171.872 98.5801 172.348C98.7819 172.816 99.0618 173.181 99.4199 173.441C99.7845 173.695 100.211 173.822 100.699 173.822ZM112.926 179.74C111.943 179.74 111.096 179.61 110.387 179.35C109.677 179.096 109.117 178.738 108.707 178.275C108.303 177.82 108.059 177.292 107.975 176.693V176.635H110.787L110.807 176.684C110.891 176.983 111.116 177.227 111.48 177.416C111.852 177.611 112.35 177.709 112.975 177.709C113.73 177.709 114.312 177.536 114.723 177.191C115.139 176.853 115.348 176.374 115.348 175.756V173.852H115.201C115.006 174.223 114.752 174.542 114.439 174.809C114.127 175.069 113.762 175.268 113.346 175.404C112.929 175.541 112.473 175.609 111.979 175.609C111.08 175.609 110.305 175.395 109.654 174.965C109.01 174.535 108.512 173.933 108.16 173.158C107.809 172.383 107.633 171.479 107.633 170.443V170.434C107.633 169.359 107.809 168.428 108.16 167.641C108.518 166.846 109.023 166.231 109.674 165.795C110.331 165.352 111.113 165.131 112.018 165.131C112.512 165.131 112.965 165.209 113.375 165.365C113.792 165.521 114.156 165.746 114.469 166.039C114.781 166.326 115.032 166.674 115.221 167.084H115.338V165.316H118.189V175.678C118.189 176.505 117.975 177.221 117.545 177.826C117.115 178.438 116.507 178.91 115.719 179.242C114.938 179.574 114.007 179.74 112.926 179.74ZM112.945 173.441C113.447 173.441 113.876 173.318 114.234 173.07C114.599 172.823 114.879 172.475 115.074 172.025C115.27 171.576 115.367 171.055 115.367 170.463V170.443C115.367 169.844 115.27 169.32 115.074 168.871C114.879 168.422 114.599 168.074 114.234 167.826C113.876 167.579 113.447 167.455 112.945 167.455C112.444 167.455 112.014 167.579 111.656 167.826C111.298 168.074 111.025 168.422 110.836 168.871C110.647 169.32 110.553 169.844 110.553 170.443V170.453C110.553 171.052 110.647 171.576 110.836 172.025C111.025 172.475 111.298 172.823 111.656 173.07C112.014 173.318 112.444 173.441 112.945 173.441ZM120.807 176V165.316H123.658V167.025H123.805C123.974 166.426 124.286 165.961 124.742 165.629C125.198 165.297 125.764 165.131 126.441 165.131C126.624 165.131 126.803 165.144 126.979 165.17C127.154 165.196 127.311 165.229 127.447 165.268V167.758C127.258 167.706 127.057 167.667 126.842 167.641C126.633 167.608 126.419 167.592 126.197 167.592C125.676 167.592 125.224 167.689 124.84 167.885C124.462 168.08 124.169 168.36 123.961 168.725C123.759 169.083 123.658 169.516 123.658 170.023V176H120.807ZM131.92 176.166C131.236 176.166 130.631 176.036 130.104 175.775C129.576 175.508 129.163 175.134 128.863 174.652C128.564 174.164 128.414 173.598 128.414 172.953V172.943C128.414 172.299 128.574 171.745 128.893 171.283C129.218 170.821 129.69 170.46 130.309 170.199C130.927 169.939 131.679 169.779 132.564 169.721L136.578 169.486V171.225L132.984 171.459C132.392 171.498 131.946 171.632 131.646 171.859C131.354 172.081 131.207 172.387 131.207 172.777V172.797C131.207 173.194 131.36 173.51 131.666 173.744C131.979 173.972 132.382 174.086 132.877 174.086C133.313 174.086 133.701 174.001 134.039 173.832C134.384 173.656 134.654 173.419 134.85 173.119C135.051 172.82 135.152 172.484 135.152 172.113V168.744C135.152 168.275 134.999 167.914 134.693 167.66C134.394 167.4 133.954 167.27 133.375 167.27C132.854 167.27 132.434 167.364 132.115 167.553C131.796 167.735 131.585 167.989 131.48 168.314L131.461 168.363H128.834L128.844 168.266C128.915 167.628 129.146 167.071 129.537 166.596C129.934 166.12 130.471 165.753 131.148 165.492C131.826 165.225 132.613 165.092 133.512 165.092C134.456 165.092 135.26 165.235 135.924 165.521C136.588 165.808 137.096 166.221 137.447 166.762C137.799 167.302 137.975 167.947 137.975 168.695V176H135.152V174.545H135.006C134.824 174.883 134.579 175.176 134.273 175.424C133.967 175.665 133.616 175.85 133.219 175.98C132.822 176.104 132.389 176.166 131.92 176.166ZM144.4 176.186C143.508 176.186 142.737 175.964 142.086 175.521C141.435 175.072 140.934 174.438 140.582 173.617C140.23 172.79 140.055 171.807 140.055 170.668V170.648C140.055 169.503 140.227 168.52 140.572 167.699C140.924 166.872 141.422 166.238 142.066 165.795C142.717 165.352 143.492 165.131 144.391 165.131C144.885 165.131 145.341 165.209 145.758 165.365C146.181 165.521 146.549 165.743 146.861 166.029C147.18 166.316 147.431 166.658 147.613 167.055H147.76V161.322H150.611V176H147.76V174.311H147.613C147.431 174.701 147.184 175.036 146.871 175.316C146.559 175.59 146.194 175.805 145.777 175.961C145.361 176.111 144.902 176.186 144.4 176.186ZM145.367 173.822C145.862 173.822 146.288 173.695 146.646 173.441C147.011 173.188 147.291 172.826 147.486 172.357C147.688 171.882 147.789 171.319 147.789 170.668V170.648C147.789 169.997 147.688 169.438 147.486 168.969C147.285 168.493 147.001 168.129 146.637 167.875C146.279 167.621 145.855 167.494 145.367 167.494C144.872 167.494 144.443 167.621 144.078 167.875C143.72 168.129 143.443 168.493 143.248 168.969C143.053 169.438 142.955 169.997 142.955 170.648V170.668C142.955 171.319 143.053 171.882 143.248 172.357C143.443 172.826 143.72 173.188 144.078 173.441C144.443 173.695 144.872 173.822 145.367 173.822ZM158.062 176.225C156.975 176.225 156.041 176 155.26 175.551C154.479 175.102 153.876 174.464 153.453 173.637C153.036 172.803 152.828 171.817 152.828 170.678V170.668C152.828 169.535 153.036 168.552 153.453 167.719C153.876 166.879 154.469 166.231 155.23 165.775C155.999 165.32 156.904 165.092 157.945 165.092C158.987 165.092 159.885 165.313 160.641 165.756C161.396 166.199 161.979 166.824 162.389 167.631C162.799 168.432 163.004 169.372 163.004 170.453V171.332H154.244V169.545H161.646L160.299 171.234V170.102C160.299 169.47 160.201 168.939 160.006 168.51C159.811 168.08 159.54 167.758 159.195 167.543C158.85 167.328 158.45 167.221 157.994 167.221C157.538 167.221 157.135 167.331 156.783 167.553C156.432 167.774 156.155 168.1 155.953 168.529C155.751 168.959 155.65 169.483 155.65 170.102V171.244C155.65 171.843 155.748 172.354 155.943 172.777C156.145 173.201 156.432 173.526 156.803 173.754C157.174 173.982 157.613 174.096 158.121 174.096C158.531 174.096 158.88 174.034 159.166 173.91C159.459 173.786 159.697 173.64 159.879 173.471C160.061 173.295 160.185 173.132 160.25 172.982L160.27 172.924H162.916L162.896 173.031C162.812 173.376 162.659 173.738 162.438 174.115C162.216 174.486 161.91 174.831 161.52 175.15C161.135 175.469 160.657 175.73 160.084 175.932C159.511 176.127 158.837 176.225 158.062 176.225Z"/><path fill="#fff" d="M39.8538 98.8317V87.5583H44.0803C45.2001 87.5583 46.1532 87.777 46.9397 88.2145C47.7314 88.652 48.3355 89.2875 48.7522 90.1208C49.1741 90.9541 49.385 91.9593 49.385 93.1364V93.152C49.385 94.3552 49.1767 95.3812 48.76 96.2302C48.3433 97.0739 47.7392 97.7197 46.9475 98.1677C46.161 98.6104 45.2053 98.8317 44.0803 98.8317H39.8538ZM41.8694 97.1364H43.8147C44.5595 97.1364 45.1949 96.9828 45.7209 96.6755C46.247 96.3682 46.6454 95.9203 46.9163 95.3317C47.1923 94.7432 47.3303 94.027 47.3303 93.1833V93.1677C47.3303 92.3447 47.1897 91.6416 46.9084 91.0583C46.6324 90.4697 46.2314 90.0218 45.7053 89.7145C45.1793 89.4072 44.5491 89.2536 43.8147 89.2536H41.8694V97.1364ZM51.3978 98.8317V90.2927H53.3353V98.8317H51.3978ZM52.3744 88.863C52.0567 88.863 51.7832 88.751 51.5541 88.527C51.3249 88.3031 51.2103 88.0349 51.2103 87.7224C51.2103 87.3994 51.3249 87.1286 51.5541 86.9099C51.7832 86.6859 52.0567 86.5739 52.3744 86.5739C52.6921 86.5739 52.9629 86.6859 53.1869 86.9099C53.416 87.1286 53.5306 87.3994 53.5306 87.7224C53.5306 88.0349 53.416 88.3031 53.1869 88.527C52.9629 88.751 52.6921 88.863 52.3744 88.863ZM58.8403 99.0036C58.1164 99.0036 57.4914 98.902 56.9653 98.6989C56.4445 98.4906 56.033 98.2041 55.7309 97.8395C55.4289 97.4697 55.2492 97.0427 55.1919 96.5583V96.5427H57.1216L57.1294 96.5583C57.2335 96.8552 57.4289 97.0974 57.7153 97.2849C58.0018 97.4724 58.3872 97.5661 58.8716 97.5661C59.1945 97.5661 59.4783 97.5218 59.7231 97.4333C59.9679 97.3395 60.1606 97.2119 60.3013 97.0505C60.4419 96.889 60.5122 96.7015 60.5122 96.488V96.4724C60.5122 96.2224 60.4106 96.014 60.2075 95.8474C60.0044 95.6755 59.6684 95.5375 59.1997 95.4333L57.8169 95.1208C57.2752 95.001 56.8273 94.8343 56.4731 94.6208C56.119 94.4072 55.8533 94.1442 55.6763 93.8317C55.5044 93.5192 55.4184 93.1546 55.4184 92.738V92.7302C55.4184 92.2145 55.5617 91.7614 55.8481 91.3708C56.1398 90.9802 56.5434 90.6755 57.0591 90.4567C57.5747 90.238 58.1684 90.1286 58.8403 90.1286C59.533 90.1286 60.1294 90.2328 60.6294 90.4411C61.1294 90.6494 61.52 90.9359 61.8013 91.3005C62.0825 91.6651 62.244 92.0791 62.2856 92.5427V92.5583H60.4575L60.4497 92.5349C60.3768 92.264 60.2023 92.0349 59.9263 91.8474C59.6554 91.6546 59.2908 91.5583 58.8325 91.5583C58.546 91.5583 58.2882 91.6026 58.0591 91.6911C57.8351 91.7796 57.658 91.9046 57.5278 92.0661C57.4028 92.2224 57.3403 92.4072 57.3403 92.6208V92.6286C57.3403 92.7953 57.382 92.9411 57.4653 93.0661C57.5539 93.1911 57.6919 93.3005 57.8794 93.3942C58.0669 93.488 58.3143 93.5713 58.6216 93.6442L60.0044 93.9489C60.8429 94.1364 61.4627 94.4151 61.8638 94.7849C62.2648 95.1546 62.4653 95.652 62.4653 96.277V96.2927C62.4653 96.8343 62.3091 97.3083 61.9966 97.7145C61.6841 98.1208 61.2544 98.4385 60.7075 98.6677C60.1606 98.8916 59.5382 99.0036 58.8403 99.0036ZM67.9703 99.0036C67.1109 99.0036 66.3766 98.8265 65.7672 98.4724C65.1578 98.1182 64.6917 97.6078 64.3688 96.9411C64.0458 96.2744 63.8844 95.4776 63.8844 94.5505V94.5349C63.8844 93.613 64.0458 92.8239 64.3688 92.1677C64.6917 91.5114 65.1578 91.0088 65.7672 90.6599C66.3766 90.3057 67.1083 90.1286 67.9625 90.1286C68.6969 90.1286 69.3271 90.2562 69.8531 90.5114C70.3844 90.7614 70.8036 91.1104 71.1109 91.5583C71.4234 92.001 71.6161 92.5192 71.6891 93.113V93.1442H69.8531L69.8453 93.1208C69.7568 92.7041 69.5536 92.363 69.2359 92.0974C68.9234 91.8317 68.5016 91.6989 67.9703 91.6989C67.5276 91.6989 67.1474 91.8109 66.8297 92.0349C66.5172 92.2588 66.2776 92.5817 66.1109 93.0036C65.9443 93.4255 65.8609 93.9359 65.8609 94.5349V94.5505C65.8609 95.1546 65.9443 95.6729 66.1109 96.1052C66.2828 96.5322 66.525 96.8604 66.8375 97.0895C67.15 97.3135 67.5276 97.4255 67.9703 97.4255C68.4755 97.4255 68.8818 97.3109 69.1891 97.0817C69.5016 96.8526 69.7177 96.514 69.8375 96.0661L69.8531 96.0349L71.6813 96.027L71.6734 96.0974C71.5797 96.6755 71.3766 97.1833 71.0641 97.6208C70.7568 98.0583 70.3453 98.3994 69.8297 98.6442C69.3141 98.8838 68.6943 99.0036 67.9703 99.0036ZM77.1081 99.0036C76.2592 99.0036 75.5274 98.8265 74.9128 98.4724C74.2982 98.113 73.8243 97.6026 73.4909 96.9411C73.1628 96.2796 72.9988 95.488 72.9988 94.5661V94.5505C72.9988 93.639 73.1654 92.8526 73.4988 92.1911C73.8321 91.5244 74.3034 91.014 74.9128 90.6599C75.5274 90.3057 76.2592 90.1286 77.1081 90.1286C77.9571 90.1286 78.6863 90.3057 79.2956 90.6599C79.9102 91.014 80.3842 91.5218 80.7175 92.1833C81.0508 92.8447 81.2175 93.6338 81.2175 94.5505V94.5661C81.2175 95.488 81.0508 96.2796 80.7175 96.9411C80.3894 97.6026 79.918 98.113 79.3034 98.4724C78.6941 98.8265 77.9623 99.0036 77.1081 99.0036ZM77.1081 97.4255C77.556 97.4255 77.9363 97.3135 78.2488 97.0895C78.5665 96.8604 78.8086 96.5349 78.9753 96.113C79.142 95.6859 79.2253 95.1729 79.2253 94.5739V94.5583C79.2253 93.9541 79.142 93.4411 78.9753 93.0192C78.8086 92.5921 78.5665 92.2666 78.2488 92.0427C77.9363 91.8135 77.556 91.6989 77.1081 91.6989C76.6602 91.6989 76.2774 91.8135 75.9597 92.0427C75.642 92.2666 75.3998 92.5921 75.2331 93.0192C75.0665 93.4411 74.9831 93.9541 74.9831 94.5583V94.5739C74.9831 95.1729 75.0665 95.6859 75.2331 96.113C75.3998 96.5401 75.6394 96.8656 75.9519 97.0895C76.2696 97.3135 76.655 97.4255 77.1081 97.4255ZM85.0038 98.8317L81.9647 90.2927H84.0428L86.0116 96.9333H86.1522L88.1131 90.2927H90.16L87.1288 98.8317H85.0038ZM94.9931 99.0036C94.1442 99.0036 93.415 98.8239 92.8056 98.4645C92.2015 98.1052 91.7353 97.5947 91.4072 96.9333C91.0791 96.2718 90.915 95.488 90.915 94.5817V94.5739C90.915 93.6781 91.0765 92.8968 91.3994 92.2302C91.7275 91.5635 92.191 91.0479 92.79 90.6833C93.389 90.3135 94.0921 90.1286 94.8994 90.1286C95.7119 90.1286 96.4098 90.3083 96.9931 90.6677C97.5817 91.0218 98.0348 91.5192 98.3525 92.1599C98.6702 92.8005 98.8291 93.5505 98.8291 94.4099V95.0505H91.8916V93.7458H97.8759L96.9541 94.9645V94.1911C96.9541 93.6234 96.8681 93.152 96.6963 92.777C96.5244 92.402 96.2848 92.1208 95.9775 91.9333C95.6754 91.7458 95.3239 91.652 94.9228 91.652C94.5218 91.652 94.165 91.751 93.8525 91.9489C93.5452 92.1416 93.3004 92.4281 93.1181 92.8083C92.941 93.1833 92.8525 93.6442 92.8525 94.1911V94.9724C92.8525 95.4984 92.941 95.9489 93.1181 96.3239C93.2952 96.6937 93.5452 96.9802 93.8681 97.1833C94.1963 97.3812 94.5843 97.4802 95.0322 97.4802C95.3811 97.4802 95.6806 97.4307 95.9306 97.3317C96.1858 97.2276 96.3916 97.1052 96.5478 96.9645C96.7041 96.8187 96.8134 96.6807 96.8759 96.5505L96.8994 96.4958H98.7431L98.7275 96.5661C98.6598 96.8421 98.5348 97.1234 98.3525 97.4099C98.1754 97.6911 97.9332 97.9541 97.6259 98.1989C97.3239 98.4385 96.9541 98.6338 96.5166 98.7849C96.0791 98.9307 95.5713 99.0036 94.9931 99.0036ZM100.654 98.8317V90.2927H102.6V91.6052H102.732C102.878 91.1468 103.139 90.7901 103.514 90.5349C103.894 90.2796 104.365 90.152 104.928 90.152C105.074 90.152 105.217 90.1625 105.357 90.1833C105.503 90.1989 105.623 90.2197 105.717 90.2458V91.988C105.561 91.9515 105.402 91.9255 105.24 91.9099C105.084 91.889 104.92 91.8786 104.748 91.8786C104.316 91.8786 103.938 91.9593 103.615 92.1208C103.292 92.2822 103.042 92.514 102.865 92.8161C102.688 93.113 102.6 93.4645 102.6 93.8708V98.8317H100.654ZM114.641 98.8317V94.3864L110.688 87.5583H112.891L115.578 92.3942H115.711L118.399 87.5583H120.602L116.649 94.3864V98.8317H114.641ZM124.451 99.0036C123.602 99.0036 122.87 98.8265 122.255 98.4724C121.641 98.113 121.167 97.6026 120.833 96.9411C120.505 96.2796 120.341 95.488 120.341 94.5661V94.5505C120.341 93.639 120.508 92.8526 120.841 92.1911C121.175 91.5244 121.646 91.014 122.255 90.6599C122.87 90.3057 123.602 90.1286 124.451 90.1286C125.3 90.1286 126.029 90.3057 126.638 90.6599C127.253 91.014 127.727 91.5218 128.06 92.1833C128.393 92.8447 128.56 93.6338 128.56 94.5505V94.5661C128.56 95.488 128.393 96.2796 128.06 96.9411C127.732 97.6026 127.261 98.113 126.646 98.4724C126.037 98.8265 125.305 99.0036 124.451 99.0036ZM124.451 97.4255C124.899 97.4255 125.279 97.3135 125.591 97.0895C125.909 96.8604 126.151 96.5349 126.318 96.113C126.484 95.6859 126.568 95.1729 126.568 94.5739V94.5583C126.568 93.9541 126.484 93.4411 126.318 93.0192C126.151 92.5921 125.909 92.2666 125.591 92.0427C125.279 91.8135 124.899 91.6989 124.451 91.6989C124.003 91.6989 123.62 91.8135 123.302 92.0427C122.984 92.2666 122.742 92.5921 122.576 93.0192C122.409 93.4411 122.326 93.9541 122.326 94.5583V94.5739C122.326 95.1729 122.409 95.6859 122.576 96.113C122.742 96.5401 122.982 96.8656 123.294 97.0895C123.612 97.3135 123.998 97.4255 124.451 97.4255ZM133.221 99.0036C132.586 99.0036 132.052 98.8812 131.62 98.6364C131.187 98.3864 130.862 98.0244 130.643 97.5505C130.424 97.0713 130.315 96.4932 130.315 95.8161V90.2927H132.26V95.3708C132.26 96.0322 132.391 96.5296 132.651 96.863C132.911 97.1963 133.336 97.363 133.924 97.363C134.237 97.363 134.513 97.3161 134.753 97.2224C134.997 97.1234 135.2 96.9828 135.362 96.8005C135.523 96.6182 135.646 96.3994 135.729 96.1442C135.812 95.8838 135.854 95.5921 135.854 95.2692V90.2927H137.799V98.8317H135.854V97.5349H135.721C135.591 97.8369 135.409 98.1 135.174 98.3239C134.94 98.5427 134.659 98.7119 134.331 98.8317C134.003 98.9463 133.633 99.0036 133.221 99.0036ZM140.054 98.8317V90.2927H142V91.6052H142.132C142.278 91.1468 142.539 90.7901 142.914 90.5349C143.294 90.2796 143.765 90.152 144.328 90.152C144.474 90.152 144.617 90.1625 144.757 90.1833C144.903 90.1989 145.023 90.2197 145.117 90.2458V91.988C144.961 91.9515 144.802 91.9255 144.64 91.9099C144.484 91.889 144.32 91.8786 144.148 91.8786C143.716 91.8786 143.338 91.9593 143.015 92.1208C142.692 92.2822 142.442 92.514 142.265 92.8161C142.088 93.113 142 93.4645 142 93.8708V98.8317H140.054ZM151.932 95.1052V93.4802H154.932C155.656 93.4802 156.218 93.2953 156.619 92.9255C157.02 92.5505 157.221 92.0244 157.221 91.3474V91.3317C157.221 90.6494 157.02 90.1234 156.619 89.7536C156.218 89.3838 155.656 89.1989 154.932 89.1989H151.932V87.5583H155.424C156.189 87.5583 156.859 87.7145 157.432 88.027C158.004 88.3395 158.452 88.7796 158.775 89.3474C159.098 89.9099 159.26 90.5687 159.26 91.3239V91.3395C159.26 92.0895 159.098 92.7484 158.775 93.3161C158.452 93.8786 158.004 94.3187 157.432 94.6364C156.859 94.9489 156.189 95.1052 155.424 95.1052H151.932ZM150.924 98.8317V87.5583H152.939V98.8317H150.924ZM164.585 99.0036C163.736 99.0036 163.007 98.8239 162.397 98.4645C161.793 98.1052 161.327 97.5947 160.999 96.9333C160.671 96.2718 160.507 95.488 160.507 94.5817V94.5739C160.507 93.6781 160.668 92.8968 160.991 92.2302C161.319 91.5635 161.783 91.0479 162.382 90.6833C162.981 90.3135 163.684 90.1286 164.491 90.1286C165.304 90.1286 166.002 90.3083 166.585 90.6677C167.174 91.0218 167.627 91.5192 167.944 92.1599C168.262 92.8005 168.421 93.5505 168.421 94.4099V95.0505H161.483V93.7458H167.468L166.546 94.9645V94.1911C166.546 93.6234 166.46 93.152 166.288 92.777C166.116 92.402 165.877 92.1208 165.569 91.9333C165.267 91.7458 164.916 91.652 164.515 91.652C164.114 91.652 163.757 91.751 163.444 91.9489C163.137 92.1416 162.892 92.4281 162.71 92.8083C162.533 93.1833 162.444 93.6442 162.444 94.1911V94.9724C162.444 95.4984 162.533 95.9489 162.71 96.3239C162.887 96.6937 163.137 96.9802 163.46 97.1833C163.788 97.3812 164.176 97.4802 164.624 97.4802C164.973 97.4802 165.272 97.4307 165.522 97.3317C165.778 97.2276 165.983 97.1052 166.14 96.9645C166.296 96.8187 166.405 96.6807 166.468 96.5505L166.491 96.4958H168.335L168.319 96.5661C168.252 96.8421 168.127 97.1234 167.944 97.4099C167.767 97.6911 167.525 97.9541 167.218 98.1989C166.916 98.4385 166.546 98.6338 166.108 98.7849C165.671 98.9307 165.163 99.0036 164.585 99.0036ZM170.246 98.8317V90.2927H172.192V91.6052H172.324C172.47 91.1468 172.731 90.7901 173.106 90.5349C173.486 90.2796 173.957 90.152 174.52 90.152C174.666 90.152 174.809 90.1625 174.949 90.1833C175.095 90.1989 175.215 90.2197 175.309 90.2458V91.988C175.152 91.9515 174.994 91.9255 174.832 91.9099C174.676 91.889 174.512 91.8786 174.34 91.8786C173.908 91.8786 173.53 91.9593 173.207 92.1208C172.884 92.2822 172.634 92.514 172.457 92.8161C172.28 93.113 172.192 93.4645 172.192 93.8708V98.8317H170.246ZM177.783 98.8317V91.8005H176.384V90.2927H177.783V89.4489C177.783 88.876 177.879 88.402 178.072 88.027C178.269 87.652 178.574 87.3734 178.986 87.1911C179.397 87.0036 179.918 86.9099 180.548 86.9099C180.756 86.9099 180.949 86.9177 181.126 86.9333C181.303 86.9437 181.467 86.9619 181.618 86.988V88.3474C181.546 88.3369 181.452 88.3291 181.337 88.3239C181.223 88.3135 181.098 88.3083 180.962 88.3083C180.504 88.3083 180.178 88.4151 179.986 88.6286C179.793 88.8369 179.697 89.1468 179.697 89.5583V90.2927H181.548V91.8005H179.728V98.8317H177.783ZM186.647 99.0036C185.798 99.0036 185.069 98.8239 184.459 98.4645C183.855 98.1052 183.389 97.5947 183.061 96.9333C182.733 96.2718 182.569 95.488 182.569 94.5817V94.5739C182.569 93.6781 182.73 92.8968 183.053 92.2302C183.381 91.5635 183.845 91.0479 184.444 90.6833C185.043 90.3135 185.746 90.1286 186.553 90.1286C187.366 90.1286 188.064 90.3083 188.647 90.6677C189.235 91.0218 189.689 91.5192 190.006 92.1599C190.324 92.8005 190.483 93.5505 190.483 94.4099V95.0505H183.545V93.7458H189.53L188.608 94.9645V94.1911C188.608 93.6234 188.522 93.152 188.35 92.777C188.178 92.402 187.939 92.1208 187.631 91.9333C187.329 91.7458 186.978 91.652 186.577 91.652C186.176 91.652 185.819 91.751 185.506 91.9489C185.199 92.1416 184.954 92.4281 184.772 92.8083C184.595 93.1833 184.506 93.6442 184.506 94.1911V94.9724C184.506 95.4984 184.595 95.9489 184.772 96.3239C184.949 96.6937 185.199 96.9802 185.522 97.1833C185.85 97.3812 186.238 97.4802 186.686 97.4802C187.035 97.4802 187.334 97.4307 187.584 97.3317C187.84 97.2276 188.045 97.1052 188.202 96.9645C188.358 96.8187 188.467 96.6807 188.53 96.5505L188.553 96.4958H190.397L190.381 96.5661C190.314 96.8421 190.189 97.1234 190.006 97.4099C189.829 97.6911 189.587 97.9541 189.28 98.1989C188.978 98.4385 188.608 98.6338 188.17 98.7849C187.733 98.9307 187.225 99.0036 186.647 99.0036ZM195.972 99.0036C195.113 99.0036 194.378 98.8265 193.769 98.4724C193.16 98.1182 192.694 97.6078 192.371 96.9411C192.048 96.2744 191.886 95.4776 191.886 94.5505V94.5349C191.886 93.613 192.048 92.8239 192.371 92.1677C192.694 91.5114 193.16 91.0088 193.769 90.6599C194.378 90.3057 195.11 90.1286 195.964 90.1286C196.699 90.1286 197.329 90.2562 197.855 90.5114C198.386 90.7614 198.806 91.1104 199.113 91.5583C199.425 92.001 199.618 92.5192 199.691 93.113V93.1442H197.855L197.847 93.1208C197.759 92.7041 197.556 92.363 197.238 92.0974C196.925 91.8317 196.503 91.6989 195.972 91.6989C195.529 91.6989 195.149 91.8109 194.832 92.0349C194.519 92.2588 194.279 92.5817 194.113 93.0036C193.946 93.4255 193.863 93.9359 193.863 94.5349V94.5505C193.863 95.1546 193.946 95.6729 194.113 96.1052C194.285 96.5322 194.527 96.8604 194.839 97.0895C195.152 97.3135 195.529 97.4255 195.972 97.4255C196.477 97.4255 196.884 97.3109 197.191 97.0817C197.503 96.8526 197.72 96.514 197.839 96.0661L197.855 96.0349L199.683 96.027L199.675 96.0974C199.582 96.6755 199.378 97.1833 199.066 97.6208C198.759 98.0583 198.347 98.3994 197.832 98.6442C197.316 98.8838 196.696 99.0036 195.972 99.0036ZM204.891 98.8708C203.912 98.8708 203.206 98.6911 202.774 98.3317C202.342 97.9724 202.126 97.3838 202.126 96.5661V91.8005H200.798V90.2927H202.126V88.1989H204.102V90.2927H205.899V91.8005H204.102V96.1052C204.102 96.527 204.191 96.8369 204.368 97.0349C204.55 97.2276 204.842 97.3239 205.243 97.3239C205.383 97.3239 205.498 97.3213 205.587 97.3161C205.68 97.3057 205.784 97.2953 205.899 97.2849V98.7849C205.764 98.8109 205.607 98.8317 205.43 98.8474C205.258 98.863 205.079 98.8708 204.891 98.8708ZM99.7897 118.113C98.722 118.113 97.8001 117.873 97.0241 117.394C96.2532 116.915 95.6569 116.235 95.235 115.355C94.8183 114.47 94.61 113.42 94.61 112.207V112.191C94.61 110.972 94.8183 109.923 95.235 109.043C95.6569 108.157 96.2532 107.475 97.0241 106.996C97.7949 106.517 98.7142 106.277 99.7819 106.277C100.636 106.277 101.407 106.446 102.094 106.785C102.782 107.118 103.342 107.582 103.774 108.175C104.206 108.764 104.467 109.441 104.555 110.207L104.548 110.269H102.579L102.571 110.23C102.477 109.787 102.3 109.402 102.04 109.074C101.779 108.741 101.456 108.483 101.071 108.3C100.686 108.113 100.256 108.019 99.7819 108.019C99.1465 108.019 98.5944 108.188 98.1256 108.527C97.6569 108.866 97.2949 109.347 97.0397 109.972C96.7897 110.592 96.6647 111.329 96.6647 112.183V112.199C96.6647 113.053 96.7897 113.793 97.0397 114.418C97.2949 115.043 97.6569 115.524 98.1256 115.863C98.5944 116.202 99.1491 116.371 99.7897 116.371C100.269 116.371 100.699 116.287 101.079 116.121C101.464 115.954 101.784 115.72 102.04 115.418C102.3 115.11 102.477 114.751 102.571 114.34L102.587 114.293H104.555V114.355C104.456 115.105 104.193 115.761 103.766 116.324C103.339 116.886 102.787 117.327 102.11 117.644C101.433 117.957 100.659 118.113 99.7897 118.113ZM108.81 117.972C108.274 117.972 107.792 117.868 107.365 117.66C106.943 117.452 106.61 117.157 106.365 116.777C106.125 116.392 106.006 115.938 106.006 115.418V115.402C106.006 114.897 106.131 114.462 106.381 114.097C106.631 113.728 106.998 113.438 107.482 113.23C107.967 113.022 108.555 112.899 109.248 112.863L112.404 112.668V113.949L109.521 114.136C108.974 114.168 108.571 114.282 108.31 114.48C108.05 114.678 107.92 114.954 107.92 115.308V115.324C107.92 115.688 108.058 115.972 108.334 116.175C108.615 116.379 108.972 116.48 109.404 116.48C109.795 116.48 110.144 116.402 110.451 116.246C110.758 116.09 111 115.879 111.177 115.613C111.355 115.342 111.443 115.037 111.443 114.699V111.996C111.443 111.569 111.308 111.243 111.037 111.019C110.766 110.79 110.365 110.675 109.834 110.675C109.391 110.675 109.029 110.754 108.748 110.91C108.467 111.061 108.276 111.277 108.177 111.558L108.17 111.59H106.334L106.342 111.519C106.404 111.04 106.592 110.621 106.904 110.261C107.217 109.902 107.631 109.623 108.146 109.425C108.662 109.228 109.256 109.129 109.927 109.129C110.667 109.129 111.292 109.243 111.802 109.472C112.313 109.696 112.701 110.024 112.967 110.457C113.232 110.884 113.365 111.397 113.365 111.996V117.832H111.443V116.66H111.31C111.154 116.931 110.951 117.165 110.701 117.363C110.456 117.561 110.175 117.712 109.857 117.816C109.539 117.92 109.191 117.972 108.81 117.972ZM115.581 117.832V109.293H117.526V110.605H117.659C117.805 110.147 118.065 109.79 118.44 109.535C118.821 109.28 119.292 109.152 119.854 109.152C120 109.152 120.143 109.162 120.284 109.183C120.43 109.199 120.55 109.22 120.643 109.246V110.988C120.487 110.952 120.328 110.925 120.167 110.91C120.011 110.889 119.847 110.879 119.675 110.879C119.242 110.879 118.865 110.959 118.542 111.121C118.219 111.282 117.969 111.514 117.792 111.816C117.615 112.113 117.526 112.465 117.526 112.871V117.832H115.581ZM125.555 118.004C124.706 118.004 123.977 117.824 123.367 117.465C122.763 117.105 122.297 116.595 121.969 115.933C121.641 115.272 121.477 114.488 121.477 113.582V113.574C121.477 112.678 121.638 111.897 121.961 111.23C122.289 110.563 122.753 110.048 123.352 109.683C123.951 109.313 124.654 109.129 125.461 109.129C126.273 109.129 126.971 109.308 127.555 109.668C128.143 110.022 128.596 110.519 128.914 111.16C129.232 111.8 129.391 112.55 129.391 113.41V114.05H122.453V112.746H128.438L127.516 113.965V113.191C127.516 112.623 127.43 112.152 127.258 111.777C127.086 111.402 126.846 111.121 126.539 110.933C126.237 110.746 125.885 110.652 125.484 110.652C125.083 110.652 124.727 110.751 124.414 110.949C124.107 111.142 123.862 111.428 123.68 111.808C123.503 112.183 123.414 112.644 123.414 113.191V113.972C123.414 114.498 123.503 114.949 123.68 115.324C123.857 115.694 124.107 115.98 124.43 116.183C124.758 116.381 125.146 116.48 125.594 116.48C125.943 116.48 126.242 116.431 126.492 116.332C126.747 116.228 126.953 116.105 127.109 115.965C127.266 115.819 127.375 115.681 127.438 115.55L127.461 115.496H129.305L129.289 115.566C129.221 115.842 129.096 116.123 128.914 116.41C128.737 116.691 128.495 116.954 128.188 117.199C127.885 117.438 127.516 117.634 127.078 117.785C126.641 117.931 126.133 118.004 125.555 118.004ZM134.872 118.004C134.023 118.004 133.294 117.824 132.685 117.465C132.081 117.105 131.614 116.595 131.286 115.933C130.958 115.272 130.794 114.488 130.794 113.582V113.574C130.794 112.678 130.956 111.897 131.278 111.23C131.607 110.563 132.07 110.048 132.669 109.683C133.268 109.313 133.971 109.129 134.778 109.129C135.591 109.129 136.289 109.308 136.872 109.668C137.461 110.022 137.914 110.519 138.232 111.16C138.549 111.8 138.708 112.55 138.708 113.41V114.05H131.771V112.746H137.755L136.833 113.965V113.191C136.833 112.623 136.747 112.152 136.575 111.777C136.403 111.402 136.164 111.121 135.857 110.933C135.554 110.746 135.203 110.652 134.802 110.652C134.401 110.652 134.044 110.751 133.732 110.949C133.424 111.142 133.179 111.428 132.997 111.808C132.82 112.183 132.732 112.644 132.732 113.191V113.972C132.732 114.498 132.82 114.949 132.997 115.324C133.174 115.694 133.424 115.98 133.747 116.183C134.075 116.381 134.463 116.48 134.911 116.48C135.26 116.48 135.56 116.431 135.81 116.332C136.065 116.228 136.271 116.105 136.427 115.965C136.583 115.819 136.693 115.681 136.755 115.55L136.778 115.496H138.622L138.607 115.566C138.539 115.842 138.414 116.123 138.232 116.41C138.054 116.691 137.812 116.954 137.505 117.199C137.203 117.438 136.833 117.634 136.396 117.785C135.958 117.931 135.45 118.004 134.872 118.004ZM140.533 117.832V109.293H142.479V110.605H142.612C142.757 110.147 143.018 109.79 143.393 109.535C143.773 109.28 144.244 109.152 144.807 109.152C144.953 109.152 145.096 109.162 145.237 109.183C145.382 109.199 145.502 109.22 145.596 109.246V110.988C145.44 110.952 145.281 110.925 145.119 110.91C144.963 110.889 144.799 110.879 144.627 110.879C144.195 110.879 143.817 110.959 143.494 111.121C143.171 111.282 142.921 111.514 142.744 111.816C142.567 112.113 142.479 112.465 142.479 112.871V117.832H140.533ZM147.679 114.105L147.499 106.55H149.656L149.476 114.105H147.679ZM148.585 118.027C148.189 118.027 147.874 117.918 147.64 117.699C147.406 117.475 147.288 117.175 147.288 116.8C147.288 116.425 147.406 116.129 147.64 115.91C147.874 115.686 148.189 115.574 148.585 115.574C148.981 115.574 149.296 115.686 149.531 115.91C149.765 116.129 149.882 116.425 149.882 116.8C149.882 117.175 149.765 117.475 149.531 117.699C149.296 117.918 148.981 118.027 148.585 118.027Z"/><defs><linearGradient id="paint0_linear_16_2909" x1="122.5" x2="227.194" y1="34.832" y2="331.584" gradientUnits="userSpaceOnUse"><stop stop-color="#2F84E0"/><stop offset="1" stop-color="#D45BFF"/></linearGradient></defs></svg>